<?xml version="1.0" encoding="utf-8"?>
<!-- Generator: Adobe Illustrator 21.0.2, SVG Export Plug-In . SVG Version: 6.00 Build 0)  -->
<svg version="1.1" id="Layer_1" xmlns="http://www.w3.org/2000/svg" xmlns:xlink="http://www.w3.org/1999/xlink" x="0px" y="0px"
	 viewBox="0 0 348 125" style="enable-background:new 0 0 348 125;" xml:space="preserve">
<style type="text/css">
	.st0{fill:#29A0DA;}
	.st1{fill:#41B4E6;}
	.st2{fill:#0091C8;}
	.st3{fill:#FFFFFF;}
	.st4{fill:#D2D2D7;}
	.st5{fill:#B9B9BE;}
</style>
<title>telegram_button</title>
<path class="st0" d="M12.7,0h322.7c7,0,12.7,5.7,12.7,12.7v99.7c0,7-5.7,12.7-12.7,12.7H12.7c-7,0-12.7-5.7-12.7-12.7V12.7
	C0,5.7,5.7,0,12.7,0z"/>
<circle class="st1" cx="72" cy="62.5" r="52"/>
<path class="st2" d="M124,62.5c0-1.3,0-2.5-0.1-3.8l-21.6-21.5L41.7,61l23.2,23.2l0.3,1.1l0.4-0.4l0,0l-0.4,0.4L90.8,111
	C110.8,103.2,124,83.9,124,62.5z"/>
<polygon class="st3" points="66.9,70.1 90.4,87.8 102.3,37.2 41.7,61 60.1,67.1 93.8,44.6 "/>
<polygon class="st4" points="60.1,67.1 65.2,85.3 66.9,70.1 93.8,44.6 "/>
<polygon class="st5" points="74.6,75.8 65.2,85.3 66.9,70.1 "/>
<image style="overflow:visible;enable-background:new    ;" width="666" height="283" xlink:href="C:\Users\DeathRow\Downloads\telegram-logo-11.png"  transform="matrix(0.28 0 0 0.28 139 23.42)">
</image>
</svg>
