<?xml version="1.0" encoding="utf-8"?>
<!-- Generator: Adobe Illustrator 21.0.2, SVG Export Plug-In . SVG Version: 6.00 Build 0)  -->
<svg version="1.1" id="Layer_1" xmlns="http://www.w3.org/2000/svg" xmlns:xlink="http://www.w3.org/1999/xlink" x="0px" y="0px"
	 viewBox="0 0 144.3 55.7" style="enable-background:new 0 0 144.3 55.7;" xml:space="preserve">
<style type="text/css">
	.st0{fill:#29A0DA;}
	.st1{fill:#41B4E6;}
	.st2{fill:#0091C8;}
	.st3{fill:#FFFFFF;}
	.st4{fill:#D2D2D7;}
	.st5{fill:#B9B9BE;}
</style>
<title>telegram_button</title>
<g>
	<path class="st0" d="M15.1,5.7h114.3c2.5,0,4.5,2,4.5,4.5v35.3c0,2.5-2,4.5-4.5,4.5H15.1c-2.5,0-4.5-2-4.5-4.5V10.2
		C10.6,7.7,12.6,5.7,15.1,5.7z"/>
	<circle class="st1" cx="36.1" cy="27.8" r="18.4"/>
	<path class="st2" d="M54.5,27.8c0-0.5,0-0.9,0-1.3l-7.6-7.6l-21.5,8.4l8.2,8.2l0.1,0.4l0.1-0.1l0,0l-0.1,0.1l9.1,9.1
		C49.9,42.2,54.5,35.4,54.5,27.8z"/>
	<polygon class="st3" points="34.3,30.5 42.6,36.8 46.8,18.9 25.4,27.3 31.9,29.5 43.8,21.5 	"/>
	<polygon class="st4" points="31.9,29.5 33.7,35.9 34.3,30.5 43.8,21.5 	"/>
	<polygon class="st5" points="37,32.5 33.7,35.9 34.3,30.5 	"/>
	
		<image style="overflow:visible;enable-background:new    ;" width="666" height="283" xlink:href="C:\Users\DeathRow\Downloads\telegram-logo-11.png"  transform="matrix(9.915270e-02 0 0 9.915270e-02 59.8213 14.0049)">
	</image>
</g>
</svg>
