<?xml version="1.0" encoding="utf-8"?>
<!-- Generator: Adobe Illustrator 21.0.2, SVG Export Plug-In . SVG Version: 6.00 Build 0)  -->
<svg version="1.1"
	 id="Layer_1" inkscape:version="0.92.3 (2405546, 2018-03-11)" sodipodi:docname="hackathon.svg" xmlns:cc="http://creativecommons.org/ns#" xmlns:dc="http://purl.org/dc/elements/1.1/" xmlns:inkscape="http://www.inkscape.org/namespaces/inkscape" xmlns:rdf="http://www.w3.org/1999/02/22-rdf-syntax-ns#" xmlns:sodipodi="http://sodipodi.sourceforge.net/DTD/sodipodi-0.dtd" xmlns:svg="http://www.w3.org/2000/svg"
	 xmlns="http://www.w3.org/2000/svg" xmlns:xlink="http://www.w3.org/1999/xlink" x="0px" y="0px" viewBox="0 0 512 512"
	 style="enable-background:new 0 0 512 512;" xml:space="preserve">
<style type="text/css">
	.st0{fill:#22B573;}
	.st1{fill:#FFFFFF;}
</style>
<sodipodi:namedview  bordercolor="#666666" borderopacity="1" gridtolerance="10" guidetolerance="10" id="namedview167" inkscape:current-layer="Layer_1" inkscape:cx="276.73917" inkscape:cy="344.22621" inkscape:pagecheckerboard="true" inkscape:pageopacity="0" inkscape:pageshadow="2" inkscape:window-height="704" inkscape:window-maximized="1" inkscape:window-width="1366" inkscape:window-x="0" inkscape:window-y="27" inkscape:zoom="1.3037281" objecttolerance="10" pagecolor="#ffffff" showgrid="false">
	</sodipodi:namedview>
<g id="g24" transform="matrix(2.8032675,0,0,2.8032675,-185.87906,-265.16388)">
	<path id="path22" class="st0" d="M77.2,94.6c-4.9,0-8.9,4-8.9,8.9v164.8c0,4.9,4,8.9,8.9,8.9h160.9c4.9,0,8.9-4,8.9-8.9V103.5
		c0-4.9-4-8.9-8.9-8.9H77.2z M83.8,103.7c0.6,0,1.1,0.1,1.6,0.3c0.5,0.2,0.9,0.5,1.3,0.9c0.4,0.4,0.7,0.8,0.9,1.3
		c0.2,0.5,0.3,1,0.3,1.6c0,0.6-0.1,1.1-0.3,1.6c-0.2,0.5-0.5,0.9-0.9,1.3c-0.4,0.4-0.8,0.7-1.3,0.9s-1,0.3-1.6,0.3
		c-0.6,0-1.1-0.1-1.6-0.3c-0.5-0.2-0.9-0.5-1.3-0.9c-0.4-0.4-0.7-0.8-0.9-1.3c-0.2-0.5-0.3-1-0.3-1.6c0-0.6,0.1-1.1,0.3-1.6
		s0.5-0.9,0.9-1.3c0.4-0.4,0.8-0.7,1.3-0.9C82.7,103.8,83.3,103.7,83.8,103.7z M99.4,103.7c0.6,0,1.1,0.1,1.6,0.3
		c0.5,0.2,0.9,0.5,1.3,0.9c0.4,0.4,0.7,0.8,0.9,1.3c0.2,0.5,0.3,1,0.3,1.6c0,0.6-0.1,1.1-0.3,1.6c-0.2,0.5-0.5,0.9-0.9,1.3
		c-0.4,0.4-0.8,0.7-1.3,0.9s-1,0.3-1.6,0.3c-0.6,0-1.1-0.1-1.6-0.3c-0.5-0.2-0.9-0.5-1.3-0.9c-0.4-0.4-0.7-0.8-0.9-1.3
		c-0.2-0.5-0.3-1-0.3-1.6c0-0.6,0.1-1.1,0.3-1.6s0.5-0.9,0.9-1.3c0.4-0.4,0.8-0.7,1.3-0.9C98.3,103.8,98.9,103.7,99.4,103.7z
		 M115,103.7c0.6,0,1.1,0.1,1.6,0.3c0.5,0.2,0.9,0.5,1.3,0.9c0.4,0.4,0.7,0.8,0.9,1.3c0.2,0.5,0.3,1,0.3,1.6c0,0.6-0.1,1.1-0.3,1.6
		c-0.2,0.5-0.5,0.9-0.9,1.3c-0.4,0.4-0.8,0.7-1.3,0.9s-1,0.3-1.6,0.3c-0.6,0-1.1-0.1-1.6-0.3s-0.9-0.5-1.3-0.9
		c-0.4-0.4-0.7-0.8-0.9-1.3c-0.2-0.5-0.3-1-0.3-1.6c0-0.6,0.1-1.1,0.3-1.6s0.5-0.9,0.9-1.3c0.4-0.4,0.8-0.7,1.3-0.9
		S114.4,103.7,115,103.7z M203.9,103.7c0.6,0,1.2,0,1.8,0.1c1.2,0.1,2.3,0.2,3.5,0.4c0.8,0.1,1.6,0.3,2.4,0.5c1.1,0.3,2.3,0.6,3.4,1
		c1.1,0.4,2.2,0.8,3.2,1.3c1.1,0.5,2.1,1,3.1,1.6c1,0.6,2,1.2,2.9,1.9c0.9,0.7,1.8,1.4,2.7,2.2c0.9,0.8,1.7,1.6,2.5,2.5
		c0.8,0.9,1.5,1.8,2.2,2.7c0.7,0.9,1.3,1.9,1.9,2.9c0.6,1,1.1,2,1.6,3.1c0.5,1.1,0.9,2.1,1.3,3.2c0.4,1.1,0.7,2.2,1,3.4
		c0.3,1.1,0.5,2.3,0.7,3.4c0.2,1.2,0.3,2.3,0.3,3.5c0,1.2,0,2.3,0,3.5c-0.1,1.2-0.2,2.3-0.4,3.5c-0.1,0.8-0.3,1.6-0.5,2.4
		c-0.3,1.1-0.6,2.3-1,3.4c-0.4,1.1-0.8,2.2-1.3,3.2c-0.5,1.1-1,2.1-1.6,3.1c-0.6,1-1.2,2-1.9,2.9c-0.7,0.9-1.4,1.8-2.2,2.7
		c-0.8,0.9-1.6,1.7-2.5,2.5c-0.9,0.8-1.8,1.5-2.7,2.2c-0.9,0.7-1.9,1.3-2.9,1.9c-1,0.6-2,1.1-3.1,1.6c-1.1,0.5-2.1,0.9-3.2,1.3
		c-1.1,0.4-2.2,0.7-3.4,1c-1.1,0.3-2.3,0.5-3.4,0.7c-1.2,0.2-2.3,0.3-3.5,0.3c-1.2,0-2.3,0-3.5,0c-1.2-0.1-2.3-0.2-3.5-0.4
		c-0.8-0.1-1.6-0.3-2.4-0.5c-1.1-0.3-2.3-0.6-3.4-1c-1.1-0.4-2.2-0.8-3.2-1.3c-1.1-0.5-2.1-1-3.1-1.6c-1-0.6-2-1.2-2.9-1.9
		c-0.9-0.7-1.8-1.4-2.7-2.2c-0.9-0.8-1.7-1.6-2.5-2.5c-0.8-0.9-1.5-1.8-2.2-2.7c-0.7-0.9-1.3-1.9-1.9-2.9c-0.6-1-1.1-2-1.6-3.1
		c-0.5-1.1-0.9-2.1-1.3-3.2c-0.4-1.1-0.7-2.2-1-3.4c-0.3-1.1-0.5-2.3-0.7-3.4c-0.2-1.2-0.3-2.3-0.3-3.5c0-1.2,0-2.3,0-3.5
		c0.1-1.2,0.2-2.3,0.4-3.5c0.1-0.8,0.3-1.6,0.5-2.4c0.3-1.1,0.6-2.3,1-3.4c0.4-1.1,0.8-2.2,1.3-3.2c0.5-1.1,1-2.1,1.6-3.1
		c0.6-1,1.2-2,1.9-2.9c0.7-0.9,1.4-1.8,2.2-2.7c0.8-0.9,1.6-1.7,2.5-2.5c0.9-0.8,1.8-1.5,2.7-2.2c0.9-0.7,1.9-1.3,2.9-1.9
		c1-0.6,2-1.1,3.1-1.6c1.1-0.5,2.1-0.9,3.2-1.3c1.1-0.4,2.2-0.7,3.4-1c1.1-0.3,2.3-0.5,3.4-0.7c1.2-0.2,2.3-0.3,3.5-0.3
		C202.7,103.7,203.3,103.7,203.9,103.7z M158.9,184.8c1.1,0,2.3,0.4,3.2,1.3l19.1,19.1c0.8,0.8,1.3,2,1.3,3.2s-0.5,2.3-1.3,3.2
		L162,230.8c-0.9,0.9-2,1.3-3.2,1.3c-1.1,0-2.3-0.4-3.2-1.3c-1.8-1.8-1.8-4.6,0-6.4l16-16l-16-16c-1.8-1.8-1.8-4.6,0-6.4
		C156.6,185.3,157.7,184.8,158.9,184.8z M112.6,184.8c1.1,0,2.3,0.4,3.2,1.3c1.8,1.8,1.8,4.6,0,6.4l-16,16l16,16
		c1.8,1.8,1.8,4.6,0,6.4c-0.9,0.9-2,1.3-3.2,1.3s-2.3-0.4-3.2-1.3l-19.1-19.1c-0.8-0.8-1.3-2-1.3-3.2c0-1.2,0.5-2.3,1.3-3.2
		l19.1-19.1C110.3,185.3,111.5,184.8,112.6,184.8z M145.4,184.8c0.7,0,1.5,0.1,2.2,0.5c2.2,1.1,3.1,3.8,2,6L130,229.7
		c-0.8,1.6-2.4,2.5-4,2.5c-0.7,0-1.4-0.2-2-0.5c-2.2-1.1-3.1-3.8-2-6l19.5-38.3C142.2,185.8,143.8,184.9,145.4,184.8z"/>
</g>
<g id="g32" transform="matrix(2.8032675,0,0,2.8032675,-185.87906,-265.16388)">
</g>
<g id="g36" transform="matrix(2.8032675,0,0,2.8032675,-185.87906,-265.16388)">
</g>
<g id="g40" transform="matrix(2.8032675,0,0,2.8032675,-185.87906,-265.16388)">
</g>
<g id="g68" transform="matrix(1.7883525,0,0,1.7883525,-102.91941,-98.289457)">
	<g id="g66">
	</g>
</g>
<g id="g82" transform="matrix(1.7883525,0,0,1.7883525,-102.91941,-98.289457)">
</g>
<g id="g90" transform="matrix(1.7883525,0,0,1.7883525,-102.91941,-98.289457)">
	<g id="g88">
	</g>
</g>
<g id="g116" transform="matrix(1.7883525,0,0,1.7883525,-102.91941,-98.289457)">
</g>
<g id="g122" transform="matrix(1.7883525,0,0,1.7883525,-102.91941,-98.289457)">
	<g id="g120">
		<path id="path952" class="st1" d="M279.9,114.4c0.5,0.4,0.9,0.7,1.4,1.1c0.5,0.5,1,1.1,1.5,1.8c0.4,0.6,0.8,1.3,1.1,2.1
			c0.3,0.7,0.5,1.5,0.7,2.3c0.2,0.8,0.2,1.6,0.2,2.4s-0.1,1.7-0.2,2.4c0,0.1,0,0.1-0.1,0.2l18.3-6.8c3.4-1.3,5.1-5,3.9-8.5
			c-1.3-3.4-5.1-5.1-8.5-3.9L279.9,114.4z"/>
		<path id="path118" class="st1" d="M272.6,75.2c-3.6,0-6.6,2.9-6.6,6.6v32.2c0.6-0.4,1.2-0.7,1.9-1c0.7-0.3,1.5-0.5,2.3-0.7
			c0.8-0.2,1.6-0.2,2.4-0.2s1.7,0.1,2.4,0.2c0.8,0.2,1.6,0.4,2.3,0.7c0.7,0.3,1.3,0.6,1.9,1V81.7C279.2,78.1,276.3,75.2,272.6,75.2z
			"/>
	</g>
</g>
<g id="g142" transform="matrix(1.7883525,0,0,1.7883525,-102.91941,-98.289457)">
	<g id="g140">
	</g>
</g>
<g id="g150" transform="matrix(1.7883525,0,0,1.7883525,-102.91941,-98.289457)">
</g>
<g id="g154" transform="matrix(1.7883525,0,0,1.7883525,-102.91941,-98.289457)">
</g>
</svg>
