<?xml version="1.0" encoding="utf-8"?>
<!-- Generator: Adobe Illustrator 21.0.2, SVG Export Plug-In . SVG Version: 6.00 Build 0)  -->
<svg version="1.1"
	 id="Capa_1" inkscape:version="0.92.3 (2405546, 2018-03-11)" sodipodi:docname="pizza.svg" xmlns:cc="http://creativecommons.org/ns#" xmlns:dc="http://purl.org/dc/elements/1.1/" xmlns:inkscape="http://www.inkscape.org/namespaces/inkscape" xmlns:rdf="http://www.w3.org/1999/02/22-rdf-syntax-ns#" xmlns:sodipodi="http://sodipodi.sourceforge.net/DTD/sodipodi-0.dtd" xmlns:svg="http://www.w3.org/2000/svg"
	 xmlns="http://www.w3.org/2000/svg" xmlns:xlink="http://www.w3.org/1999/xlink" x="0px" y="0px" viewBox="0 0 512 512"
	 style="enable-background:new 0 0 512 512;" xml:space="preserve">
<style type="text/css">
	.st0{fill:#22B573;}
</style>
<sodipodi:namedview  bordercolor="#666666" borderopacity="1" gridtolerance="10" guidetolerance="10" id="namedview41" inkscape:current-layer="Capa_1" inkscape:cx="256" inkscape:cy="256" inkscape:pagecheckerboard="true" inkscape:pageopacity="0" inkscape:pageshadow="2" inkscape:window-height="704" inkscape:window-maximized="1" inkscape:window-width="1366" inkscape:window-x="0" inkscape:window-y="27" inkscape:zoom="0.4609375" objecttolerance="10" pagecolor="#ffffff" showgrid="false">
	</sodipodi:namedview>
<g id="g38">
	<g id="g36">
		<path id="path2" class="st0" d="M504.3,165.3c-0.1-0.2-0.2-0.4-0.3-0.6c-1.9-7.3-4.1-14.5-6.9-21.3l-24.7,20.2
			c3.6,6.4,6.8,13,9.9,19.6l11.4,32.7c-0.9,6.1-2.4,11.8-5,17.1c-10,20.8-30.3,28-30.9,28.3l-156.2,63.3c-0.2-5.9-1-12.3-2.6-19.2
			c-0.2-0.8-0.3-1.6-0.3-2.4l177.8-73.9c1-0.4,1.9-1,2.9-1.5L466,189.8c-3.5-7.6-7.3-15.2-11.5-22.7c0,0,0,0-0.1,0
			c-0.2-0.2-0.2-0.4-0.3-0.6c-7.6-13.2-16.8-26.1-28.9-37.8c-0.3-0.2-0.6-0.2-0.9-0.4c-1.1-0.7-2-1.7-2.6-2.8
			c-12.4-11.3-27.5-21.4-46.7-29.7c-0.8-0.1-1.6-0.2-2.4-0.5c-0.7-0.3-1.3-0.8-1.9-1.3c-15.6-6.3-33.7-11.5-55-15.1
			c-0.3,0-0.6,0.1-0.9,0.1c-1.1,0-2.1-0.2-3.1-0.6c-0.1-0.1-0.2-0.2-0.4-0.2c-31.9-5-70.5-6.7-117.8-3.9c-0.2,0-0.3,0.1-0.5,0.1
			c-0.1,0-0.2-0.1-0.3-0.1c-37.5,2.2-80.4,7.2-129.6,15.6l-11,1.3L39.7,248.8c-16,10.2-49.7,37.8-36.9,83
			c4.5,15.9,11.9,25.3,21.9,27.8c1.8,0.5,4.8,2,4.4,4.8c-3.4,21.5-9.1,61.1-9.6,85.2c-0.2,11,3.1,20.1,9.7,26.9
			c10.5,10.7,26.3,12.3,34.7,12.3c3,0,5-0.2,5-0.2c3.3-0.2,30.5-2.6,39.5-21.4c5.5-11.5,2.6-25.5-8.5-41.7l143.8-58.3
			c0,0,0.1,0,0.1,0c1.7,0.9,3.5,1.6,5.4,2.2c0.3,0.1,0.6,0.2,0.9,0.3c2.2,0.6,4.5,1,6.9,1.2c1.2,0.1,2.4,0.1,3.6,0.1l0,0
			c0.4,0,0.7-0.1,1-0.1c2.7-0.1,5.3-0.3,8-0.8c1-0.2,2-0.5,3-0.8c1.5-0.4,3-0.8,4.4-1.4c1.2-0.5,2.4-1,3.6-1.5
			c1.1-0.6,2.2-1.2,3.3-1.9c1.1-0.7,2.2-1.3,3.2-2.1c1.8-1.4,3.4-3,4.9-4.8c0.2-0.2,0.4-0.4,0.6-0.6c2.8-3.5,4.8-7.6,6.3-12.2
			c0-0.1,0.1-0.1,0.1-0.2l164.7-66.8c1.1-0.4,27.2-9.4,40.5-36.8C514.6,220,514.5,194.6,504.3,165.3z M90,397
			c1.8-5.8,8.1-10.9,19.2-15.2l116.2-48.3c0.5,6.2,1.8,13.4,5.2,19.9L91.4,409.9C89.5,404.9,88.9,400.5,90,397z M217.5,279.1
			c-0.1-5,1.6-9.8,4.9-13.5c3.4-3.8,8.1-6,13.2-6.1c0.4,0,1-0.7,1-1.7c-0.2-10.6,7.9-19.4,18.1-19.6c0.4,0,1-0.7,1-1.7
			c-0.1-4.8,3.7-8.9,8.6-9c5.1,0.3,8.9,3.7,9,8.6c0.2,10.6-7.9,19.4-18.1,19.6c-0.4,0-1,0.7-1,1.7c0.2,10.6-7.9,19.4-18.1,19.6
			c-0.6,0-1,1-1,1.7c0.1,4.8-3.7,8.9-8.6,9c-0.1,0-0.1,0-0.2,0C221.5,287.7,217.6,283.9,217.5,279.1z M365.4,138.1
			c7,0,16.5,0,24.8,4c7.4,3.5,16.2,11.5,16.2,29.5c0,29.5-30.2,53.5-67.2,53.5c-31.4,0-58.5,0-58.5-36
			C280.6,155.8,351.6,138.1,365.4,138.1z M226,86.3c6.1-1.3,12.3-0.2,17.4,3c5.3,3.3,9,8.5,10.2,14.5c0.6,2.8,3.7,4.6,6.9,3.9
			c6.1-1.3,12.3-0.2,17.4,3c5.3,3.3,9,8.5,10.2,14.5c0.4,1.7,1.6,2.7,2.3,3.1c1.4,0.8,3,1.1,4.6,0.8c4.8-0.9,9.4,2.1,10.4,6.8
			c1,4.7-2.1,9.4-6.8,10.4c-1.6,0.3-3.3,0.5-5,0.5c-4.4,0-8.7-1.2-12.5-3.5c-5.3-3.3-9-8.5-10.2-14.5c-0.4-1.7-1.6-2.7-2.3-3.1
			c-1.3-0.8-3-1.1-4.6-0.8c-12.7,2.6-25.1-5.3-27.6-17.5c-0.4-1.7-1.6-2.7-2.3-3.1c-1.3-0.8-3-1.1-4.6-0.8c-4.8,1-9.4-2.1-10.4-6.8
			C218.2,91.9,221.3,87.2,226,86.3z M231.8,183.2c1.6,0.7,3.1,0.3,3.9,0c1.5-0.6,2.6-1.8,3.3-3.3c2-4.4,7.1-6.5,11.6-4.5
			c4.4,1.9,6.4,7.1,4.5,11.5c-2.5,5.7-7,10.1-12.6,12.5c-5.8,2.4-12.1,2.4-17.7-0.1c-1.6-0.7-3.1-0.3-3.9,0
			c-1.5,0.6-2.6,1.8-3.3,3.3c-5.2,11.9-18.8,17.4-30.3,12.4c-1.6-0.7-3.1-0.3-3.9,0c-1.5,0.6-2.6,1.8-3.3,3.3
			c-1.4,3.3-4.7,5.2-8,5.2c-1.2,0-2.4-0.2-3.5-0.7c-4.4-1.9-6.4-7.1-4.5-11.5c2.5-5.7,7-10.1,12.6-12.5c5.8-2.4,12.1-2.4,17.7,0.1
			c2.6,1.2,5.9-0.4,7.2-3.4c2.5-5.7,7-10.1,12.6-12.5C219.8,180.7,226.1,180.7,231.8,183.2z M169.8,94.6c12.3,0,40.9,0,40.9,33.4
			c0,29.5-30.2,53.5-67.2,53.5c-31.4,0-58.5,0-58.5-36C85,112.3,156,94.6,169.8,94.6z M64.7,287.8c0-33.2,71-51,84.8-51
			c12.3,0,40.9,0,40.9,33.4c0,29.5-30.2,53.5-67.2,53.5C91.8,323.8,64.7,323.8,64.7,287.8z"/>
		<circle id="circle4" class="st0" cx="320.1" cy="191.5" r="8.8"/>
		<circle id="circle6" class="st0" cx="365.8" cy="168.3" r="8.8"/>
		<circle id="circle8" class="st0" cx="354.3" cy="190.3" r="8.8"/>
		<circle id="circle10" class="st0" cx="125" cy="149.7" r="8.8"/>
		<circle id="circle12" class="st0" cx="176.1" cy="138.1" r="8.8"/>
		<circle id="circle14" class="st0" cx="147.9" cy="129.3" r="8.8"/>
		<circle id="circle16" class="st0" cx="105.3" cy="290.5" r="8.8"/>
		<circle id="circle18" class="st0" cx="133.8" cy="270.1" r="8.8"/>
		<circle id="circle20" class="st0" cx="147.9" cy="287.7" r="8.8"/>
		<path id="path22" class="st0" d="M114,64.3V32.1c-6.9,0.9-13.5,1.9-19.3,2.8C74.2,38.2,58.4,53.5,54,73.2l6.6-0.8
			C79.2,69.3,97,66.6,114,64.3z"/>
		<path id="path24" class="st0" d="M447.2,78.1c-13.5-10.4-29-19.5-46.7-27L387.1,83c15.5,7.2,28.7,15.7,40.1,25L447.2,78.1z"/>
		<path id="path26" class="st0" d="M184.2,25.1c-18.9,1.2-36.6,2.9-52.6,4.8v32.3c18.5-2.2,36.1-3.8,52.6-4.9V25.1z"/>
		<path id="path28" class="st0" d="M320.9,29.5c-18.1-2.8-37.3-4.7-57.8-5.6v32.3c16.5,0.8,31.7,2.3,45.8,4.4L320.9,29.5z"/>
		<path id="path30" class="st0" d="M384.2,44.7c-14.1-4.9-29.3-8.9-45.7-12.2l-12,31.1c16.4,3.3,31.2,7.4,44.5,12.4L384.2,44.7z"/>
		<path id="path32" class="st0" d="M245.5,55.7V23.6c-3.6-0.1-7.2-0.2-10.9-0.2c-11.2,0-22.2,0.3-33,0.8v32.3
			C217.1,55.7,231.8,55.5,245.5,55.7z"/>
		<path id="path34" class="st0" d="M463.2,148.5l26.1-21.4c-7.5-13.9-17.2-26.3-28.8-37.5L440.3,120
			C449.1,128.9,456.7,138.5,463.2,148.5z"/>
	</g>
</g>
</svg>
