<?xml version="1.0" encoding="utf-8"?>
<!-- Generator: Adobe Illustrator 21.0.2, SVG Export Plug-In . SVG Version: 6.00 Build 0)  -->
<svg version="1.1" id="icons" xmlns="http://www.w3.org/2000/svg" xmlns:xlink="http://www.w3.org/1999/xlink" x="0px" y="0px"
	 viewBox="0 0 844 844" style="enable-background:new 0 0 844 844;" xml:space="preserve">
<style type="text/css">
	.st0{fill:#4A89DC;}
	.st1{fill:#5D9CEC;}
	.st2{fill:#FFCE54;}
	.st3{fill:#EDAB37;}
</style>
<g>
	<path class="st0" d="M422,130.2l-86.3,86.2L130.3,11h172.5L422,130.2z"/>
</g>
<g>
	<path class="st1" d="M422,130.2L541.2,11h172.5L422,302.7l-86.3-86.3L422,130.2z"/>
</g>
<g>
	<path class="st2" d="M422,302.7c146.5,0,265.2,118.7,265.2,265.2C687.2,714.2,568.5,833,422,833S156.8,714.2,156.8,567.8
		C156.8,421.3,275.5,302.7,422,302.7z M601.8,615.1c4-15,6.1-30.9,6.1-47.2C607.9,465.2,524.6,382,422,382s-185.9,83.3-185.9,185.9
		c0,16.3,2.1,32.2,6.1,47.2C263,694.9,335.7,753.7,422,753.7S581,694.9,601.8,615.1z"/>
</g>
<circle class="st3" cx="422" cy="571.2" r="213.8"/>
</svg>
