<?xml version="1.0" encoding="utf-8"?>
<!-- Generator: Adobe Illustrator 21.0.2, SVG Export Plug-In . SVG Version: 6.00 Build 0)  -->
<svg version="1.1" id="Capa_1" xmlns="http://www.w3.org/2000/svg" xmlns:xlink="http://www.w3.org/1999/xlink" x="0px" y="0px"
	 viewBox="0 0 844 844" style="enable-background:new 0 0 844 844;" xml:space="preserve">
<style type="text/css">
	.st0{fill:#64A3FF;}
	.st1{fill:#DA4453;}
	.st2{fill:#CE3A50;}
	.st3{fill:#FECE00;}
	.st4{fill:#ED5565;}
	.st5{fill:#DDB40A;}
</style>
<rect x="151" y="230.6" class="st0" width="450.3" height="577.3"/>
<rect x="553.1" y="230.6" class="st0" width="48.2" height="577.3"/>
<path class="st1" d="M524.1,357.7c56.3,0,72.4,50.3,72.4,50.3c-27.7,7.1-48.2,32.3-48.2,62.3h-24.1c-31.1,0-56.3-25.2-56.3-56.3
	C467.8,382.9,493,357.7,524.1,357.7z"/>
<path class="st2" d="M701,357.7c31.1,0,56.3,25.2,56.3,56.3s-25.2,56.3-56.3,56.3h-24.1c0-30-20.5-55.2-48.3-62.3
	C628.6,408,644.7,357.7,701,357.7z"/>
<rect x="403.5" y="470.2" class="st3" width="418.1" height="96.5"/>
<rect x="435.7" y="566.7" class="st3" width="353.8" height="241.2"/>
<path class="st4" d="M676.9,470.2L676.9,470.2H548.2c0-30,20.5-55.2,48.2-62.3c5.1-1.3,10.5-2,16.1-2c5.5,0,10.9,0.7,16.1,2
	C656.4,415.1,676.9,440.3,676.9,470.2z"/>
<rect x="548.2" y="566.7" class="st1" width="128.6" height="241.2"/>
<rect x="548.2" y="470.2" class="st4" width="128.6" height="96.5"/>
<polygon class="st0" points="151,230.6 151,807.9 86.7,743.6 86.7,230.6 151,230.6 151,230.6 "/>
<polygon class="st0" points="86.7,743.6 151,807.9 22.4,807.9 "/>
<polygon class="st0" points="86.7,230.6 86.7,743.6 22.4,807.9 22.4,230.6 "/>
<rect x="773.4" y="470.2" class="st5" width="48.2" height="96.5"/>
<rect x="741.2" y="567.5" class="st5" width="48.2" height="240.4"/>
<path d="M376.2,795.9h-213V242.7h104.5v66.7c0,6.7,5.4,12.1,12.1,12.1c6.6,0,12.1-5.4,12.1-12.1v-66.7h168.8v66.7
	c0,6.7,5.4,12.1,12.1,12.1c6.6,0,12.1-5.4,12.1-12.1v-66.7h104.5v82.8c0,6.7,5.4,12.1,12.1,12.1c6.7,0,12.1-5.4,12.1-12.1v-94.9
	c0-6.7-5.4-12.1-12.1-12.1H484.7v-86c0,0,0,0,0-0.1C484.7,72.7,436,24,376.2,24c-24.1,0-46.3,7.9-64.3,21.2
	c-18-13.3-40.3-21.2-64.3-21.2C187.7,24,139,72.7,139,132.5c0,0,0,0,0,0v86H86.8c0,0-0.1,0-0.1,0c0,0-0.1,0-0.1,0H22.4
	c-3.2,0-6.3,1.3-8.5,3.5c-2.3,2.2-3.5,5.3-3.5,8.5v210.6c0,6.7,5.4,12.1,12.1,12.1s12.1-5.4,12.1-12.1V242.7h40.2v495.9l-40.2,40.2
	V489.5c0-6.7-5.4-12.1-12.1-12.1s-12.1,5.4-12.1,12.1v318.4c0,0,0,0.1,0,0.1c0,0.4,0,0.7,0.1,1c0,0,0,0,0,0.1
	c0.3,2.7,1.4,5.2,3.5,7.3c0.2,0.2,0.4,0.4,0.6,0.5c0.1,0.1,0.2,0.2,0.3,0.3c0.2,0.2,0.4,0.3,0.7,0.5c0.1,0.1,0.2,0.1,0.3,0.2
	c0.3,0.2,0.6,0.4,0.9,0.5c0,0,0.1,0,0.1,0.1c0.3,0.2,0.7,0.3,1,0.5c0,0,0,0,0.1,0c0.3,0.1,0.6,0.2,0.9,0.3c0.1,0,0.1,0.1,0.2,0.1
	c0.2,0.1,0.4,0.1,0.7,0.2c0.2,0,0.3,0.1,0.5,0.1c0.1,0,0.1,0,0.2,0c0.7,0.1,1.4,0.2,2.1,0.2H151c0,0,0.1,0,0.1,0h225
	c6.7,0,12.1-5.4,12.1-12.1C388.2,801.3,382.8,795.9,376.2,795.9z M291.7,132.5c0-20.8,7.6-39.8,20.1-54.5
	c12.5,14.7,20.1,33.8,20.1,54.6c0,0,0,0,0,0v86h-40.2L291.7,132.5C291.7,132.5,291.7,132.5,291.7,132.5z M460.6,132.5
	C460.6,132.6,460.6,132.6,460.6,132.5l0,86H356.1v-86c0,0,0,0,0,0c0-26.9-9.9-51.6-26.2-70.6c13.3-8.8,29.2-13.9,46.3-13.9
	C422.7,48.1,460.6,86,460.6,132.5z M247.5,48.1c17.1,0,33,5.1,46.3,13.9c-16.3,19-26.2,43.6-26.2,70.6c0,0,0,0.1,0,0.1v85.9H163.1
	v-86c0,0,0,0,0,0C163.1,86,201,48.1,247.5,48.1z M86.7,760.7l35.2,35.2H51.5L86.7,760.7z M139,242.7v536.1l-40.2-40.2V242.7H139z"/>
<path d="M821.6,458.2H753c10.2-11.9,16.3-27.4,16.3-44.2c0-37.7-30.7-68.3-68.3-68.3c-44,0-69.2,28-79.7,48.8
	c-2.9-0.3-5.8-0.5-8.7-0.5c-2.9,0-5.9,0.2-8.7,0.5c-10.5-20.8-35.8-48.8-79.7-48.8c-37.7,0-68.3,30.7-68.3,68.3
	c0,16.9,6.1,32.3,16.3,44.2h-68.6c-6.7,0-12.1,5.4-12.1,12.1v96.5c0,6.7,5.4,12.1,12.1,12.1h20.1v229.1c0,6.7,5.4,12.1,12.1,12.1
	h353.8c6.7,0,12.1-5.4,12.1-12.1V578.8h20.1c6.7,0,12.1-5.4,12.1-12.1v-96.5C833.7,463.6,828.3,458.2,821.6,458.2z M560.3,554.7
	v-72.4h104.5v72.4H560.3z M560.3,578.8h104.5v217.1H560.3V578.8z M701,369.7c24.4,0,44.2,19.8,44.2,44.2c0,24.4-19.8,44.2-44.2,44.2
	c0,0,0,0-0.1,0h-13c-4-25.2-20.4-46.4-42.8-57C652.6,388.8,669.2,369.7,701,369.7z M663.4,458.2H561.7c5.5-23,26.2-40.2,50.8-40.2
	C637.2,418,657.9,435.2,663.4,458.2z M524.1,458.2c-24.4,0-44.2-19.8-44.2-44.2c0-24.4,19.8-44.2,44.2-44.2
	c31.9,0,48.5,19,55.9,31.4c-22.4,10.6-38.8,31.8-42.9,57L524.1,458.2C524.1,458.2,524.1,458.2,524.1,458.2z M415.6,482.3h120.6v72.4
	H415.6V482.3z M447.7,578.8h88.4v217.1h-88.4V578.8z M777.4,795.9h-88.4V578.8h88.4V795.9z M809.5,554.7H688.9v-72.4h120.6V554.7z"
	/>
</svg>