<?xml version="1.0" encoding="utf-8"?>
<!-- Generator: Adobe Illustrator 21.0.2, SVG Export Plug-In . SVG Version: 6.00 Build 0)  -->
<svg version="1.1" id="Capa_1" xmlns="http://www.w3.org/2000/svg" xmlns:xlink="http://www.w3.org/1999/xlink" x="0px" y="0px"
	 viewBox="0 0 844 844" style="enable-background:new 0 0 844 844;" xml:space="preserve">
<style type="text/css">
	.st0{fill:#FECE00;}
	.st1{fill:#EEBF00;}
	.st2{fill:#DDB201;}
	.st3{fill:#3E3D43;}
	.st4{fill:#444444;}
	.st5{fill:#77767E;}
	.st6{fill:#CBA400;}
	.st7{fill:#FEDA44;}
	.st8{fill:#FFFFFF;}
</style>
<g>
	<path class="st0" d="M601.7,25.2H227.5h-39.9c0,0,0,389.6,162.1,479.8c19.1,10.6,30.7,31,30.7,52.9h28.5h54.8
		c0-21.9,11.6-42.3,30.7-52.9c17.6-9.8,33.2-23.1,47.2-39c82.1-93.7,105.6-278.6,112.2-376.5c2.7-39.1,2.7-64.3,2.7-64.3L601.7,25.2
		L601.7,25.2L601.7,25.2z"/>
	<path class="st1" d="M25.1,169.2c1.7-148.6,165.1-79.8,165.1-79.8c1,15,2.4,32,4.4,50.4c-43-15.5-134.8-38.3-121.9,55.6
		c13.1,95.2,54.6,161,109.9,196.5c30.8,19.8,64.8,22.6,84.5,22.2c10.4,19.2,22.1,36.7,35.4,51.8v0c0,0-69.5,12.9-138.7-28.7
		C99.3,398.5,23.4,315.2,25.1,169.2z"/>
	<rect x="380.4" y="613.6" class="st0" width="83.2" height="73.8"/>
	<rect x="379" y="613.6" class="st2" width="84.6" height="28.9"/>
	<rect x="249.8" y="740.6" class="st3" width="344.4" height="78.2"/>
	<rect x="249.8" y="788.7" class="st4" width="344.4" height="30.1"/>
	<rect x="314.7" y="687.4" class="st5" width="214.7" height="53.2"/>
	<rect x="314.7" y="714" class="st3" width="214.7" height="26.6"/>
	<path class="st6" d="M465,613.6h-86c-15.4,0-27.9-12.5-27.9-27.9l0,0c0-15.4,12.5-27.9,27.9-27.9h86c15.4,0,27.9,12.5,27.9,27.9
		l0,0C492.9,601.1,480.4,613.6,465,613.6z"/>
	<path class="st2" d="M601.7,25.2c0,0,0,25.2-2.7,64.3c-6.7,97.9-30.1,282.9-112.2,376.5c-14,15.9-29.6,29.2-47.2,39
		c-19.1,10.6-30.7,31-30.7,52.9h54.8c0-21.9,11.6-42.3,30.7-52.9c17.6-9.8,33.2-23.1,47.2-39c82.1-93.7,105.6-278.6,112.2-376.5
		c2.7-39.1,2.7-64.3,2.7-64.3L601.7,25.2L601.7,25.2z"/>
	<path class="st7" d="M389.6,505C227.5,414.8,227.5,25.2,227.5,25.2h-39.9c0,0,0,389.6,162.1,479.8c19.1,10.6,30.7,31,30.7,52.9
		h28.5c0-9.1,2-17.9,5.7-25.8C409.4,520.8,400.8,511.2,389.6,505z"/>
	<path class="st1" d="M818.9,169.2c-1.7-148.6-165.1-79.8-165.1-79.8c-1,15-2.4,32-4.4,50.4c43-15.5,134.8-38.3,121.9,55.6
		c-13.1,95.2-54.6,161-109.9,196.5c-30.8,19.8-64.8,22.6-84.5,22.2c-10.4,19.2-22.1,36.7-35.4,51.8v0c0,0,69.5,12.9,138.7-28.7
		C744.7,398.5,820.6,315.2,818.9,169.2z"/>
	<g>
		<path class="st6" d="M162.1,130.2c12.1,2.8,23.4,6.4,32.5,9.7c-2-18.4-3.4-35.4-4.4-50.4c0,0-16.1-6.8-38.2-11.5
			C156.1,95.3,159.8,112.6,162.1,130.2z"/>
		<path class="st6" d="M267.1,414.2c-9.9,0.2-23.5-0.4-38.5-3.6c1.5,4,2.9,8.1,4.5,12.1c7.1,15.2,15.8,30,24.7,44.5
			c26.7,2.2,44.7-1.2,44.7-1.2v0C289.2,450.8,277.5,433.3,267.1,414.2z"/>
		<path class="st6" d="M681.9,130.2c-12.1,2.8-23.4,6.4-32.5,9.7c2-18.4,3.4-35.4,4.4-50.4c0,0,16.1-6.8,38.2-11.5
			C687.9,95.3,684.2,112.6,681.9,130.2z"/>
		<path class="st6" d="M576.9,414.2c9.9,0.2,23.5-0.4,38.5-3.6c-1.5,4-2.9,8.1-4.5,12.1c-7.1,15.2-15.8,30-24.7,44.5
			c-26.7,2.2-44.7-1.2-44.7-1.2v0C554.8,450.8,566.5,433.3,576.9,414.2z"/>
	</g>
	<path d="M475.8,699.6H368.2v-98.1h107.5V699.6z M392.5,675.3h58.9v-49.5h-58.9L392.5,675.3L392.5,675.3z"/>
	<path d="M465,625.8h-86c-22.1,0-40-18-40-40s18-40,40-40h86c22.1,0,40,18,40,40S487.1,625.8,465,625.8z M379,570
		c-8.7,0-15.7,7.1-15.7,15.7s7.1,15.7,15.7,15.7h86c8.7,0,15.7-7.1,15.7-15.7S473.7,570,465,570H379z"/>
	<path d="M541.5,752.8h-239v-77.5h239V752.8z M326.8,728.5h190.4v-28.9H326.8V728.5z"/>
	<path d="M606.4,831H237.6V728.5h368.7V831L606.4,831z M261.9,806.7h320.2v-53.9H261.9V806.7z"/>
	<path d="M475.8,570H368.2v-12.1c0-17.7-9.4-33.9-24.5-42.3c-39.3-21.8-72.5-61.7-98.8-118.5c-20.6-44.5-37.1-99.5-49-163.6
		c-20.2-108.5-20.5-207.3-20.5-208.3V13h493.2l0,12.1c0,1,0,26.1-2.7,65.1c-7,102.2-31.2,287.9-115.2,383.7
		c-15.4,17.6-32.3,31.6-50.4,41.6c-15.1,8.4-24.5,24.6-24.5,42.3L475.8,570L475.8,570z M391.5,545.7h60.9
		c3.6-21.6,16.7-40.6,35.9-51.4c15.6-8.7,30.4-20.9,44-36.4c79.3-90.4,102.5-270.2,109.3-369.3c1.5-22.4,2.2-40.3,2.4-51.3H199.9
		c1.7,65.9,17.3,380.1,155.6,457.1C374.8,505.1,387.9,524.1,391.5,545.7z"/>
	<path d="M568.2,480C568.2,480,568.2,480,568.2,480c-17.4,0-28.5-2-28.9-2.1l-21-3.9l14.1-16c12.1-13.8,23.5-30.5,33.8-49.6l3.5-6.5
		l7.4,0.2c1,0,2.1,0,3.1,0c19.6,0,48.4-3.5,74.5-20.3c55.6-35.7,92.7-102.5,104.4-188c2.8-20.5,0.3-35.4-7.4-44.3
		c-6.7-7.7-18.3-11.6-34.3-11.6c-22,0-47,7.3-64,13.5l-18.2,6.6l2-19.3c1.8-16.5,3.2-33.4,4.4-50l0.5-7.5l6.9-2.9
		c1.6-0.7,40.5-16.9,81.9-16.9c63.7,0,99.2,38.2,100.1,107.7c0.8,68.3-14.8,129.1-46.3,180.7c-31,50.7-70.5,81.2-98.2,97.9
		C642,474.4,597.6,480,568.2,480z M565.2,455.7c1,0,2,0,3,0c0,0,0,0,0,0c26.3,0,66.1-5,105.7-28.9c40.5-24.4,134.6-98.3,132.8-257.5
		c-0.7-56.3-25.4-83.7-75.8-83.7c-26.9,0-53.5,8.1-65.6,12.4c-0.6,8.1-1.3,16.3-2,24.5c16.5-4.9,36-9,54.2-9
		c23.4,0,41.1,6.7,52.6,20c12.6,14.4,17,35.8,13.2,63.6c-6.5,47.6-20.2,89.7-40.6,125.1c-19.5,33.8-44.6,60.7-74.7,80
		c-29.4,18.9-61.2,23.6-83.9,24.1C578.1,436.8,571.8,446.7,565.2,455.7z"/>
	<path d="M275.8,480c-29.4,0-73.8-5.6-118.2-32.3c-27.7-16.7-67.3-47.2-98.2-97.9C27.8,298.2,12.2,237.4,13,169.1
		C13.8,99.6,49.3,61.4,113,61.4c41.4,0,80.3,16.2,81.9,16.9l6.9,2.9l0.5,7.5c1.1,16.7,2.6,33.5,4.4,50l2,19.3l-18.2-6.6
		c-17.1-6.1-42-13.5-64-13.5c-16,0-27.6,3.9-34.3,11.6c-7.7,8.9-10.2,23.8-7.4,44.3c11.7,85.5,48.8,152.3,104.4,188
		c26.1,16.8,54.9,20.3,74.5,20.3c1.1,0,2.1,0,3.1,0l7.4-0.2l3.5,6.5c10.4,19.1,21.8,35.8,33.8,49.6l3,3.4v4.6
		c0,3.2-1.2,10.7-12.2,12.3c-1.8,0.3-3.7,0.5-5.8,0.7C290,479.7,283,480,275.8,480z M113,85.7c-50.3,0-75.1,27.4-75.8,83.7
		c-1.9,159.2,92.2,233.1,132.8,257.5c39.6,23.9,79.4,28.9,105.7,28.9c1,0,2,0,3,0c-6.6-9.1-12.9-18.9-18.9-29.4
		c-22.7-0.5-54.5-5.2-83.9-24.1c-30.1-19.3-55.2-46.3-74.7-80c-20.4-35.4-34.1-77.5-40.6-125.1c-3.8-27.8,0.6-49.2,13.2-63.6
		c11.5-13.2,29.2-20,52.6-20c18.3,0,37.7,4.1,54.2,9c-0.7-8.1-1.4-16.3-2-24.5C166.5,93.8,140,85.7,113,85.7z"/>
	<rect x="187.6" y="53.9" width="467.8" height="24.3"/>
	<g>
		<path class="st8" d="M322.1,448.2c-7.8-8.3-15.2-17.9-22.1-28.4l20.3-13.4c6.2,9.4,12.8,17.9,19.6,25.2L322.1,448.2z"/>
		<path class="st8" d="M290.7,404.5c-19-33.5-34.6-76.4-46.2-127.4l23.7-5.4c11.1,48.8,25.8,89.4,43.7,120.8L290.7,404.5z"/>
	</g>
	<rect x="677" y="501" width="24.3" height="65.3"/>
	<rect x="656.5" y="521.6" width="65.3" height="24.3"/>
	<rect x="151.5" y="629.9" width="24.3" height="58.7"/>
	<rect x="134.3" y="647.1" width="58.7" height="24.3"/>
	<rect x="91" y="473.4" width="22.9" height="24.3"/>
	<rect x="238.3" y="545.3" width="22.9" height="24.3"/>
	<rect x="607.7" y="618.4" width="22.9" height="24.3"/>
</g>
</svg>