<svg id="a490d581-c356-41e2-b0f0-0de4275777d8" xmlns="http://www.w3.org/2000/svg" viewBox="0 0 375.98 429.17"><defs><style>.cls-1{fill:#22b573;}.cls-2{fill:#fff;}.cls-2,.cls-3{opacity:0.1;isolation:isolate;}.cls-4{fill:#187c4c;}</style></defs><title>prizes</title><path class="cls-1" d="M736,114.07l-.68,9.13c-.1,1.24-2.47,30.76-20,65.26-15,29.59-44.19,68.13-99.3,89.79q-6.45,2.55-13.39,4.76l-5.16-16.2a189.43,189.43,0,0,0,37.22-16.28c28.09-16.22,49.93-39.37,65.16-69.16a185.77,185.77,0,0,0,17.1-50.3H654.3v-17Z" transform="translate(-360.26 -85.91)"/><path class="cls-2" d="M609.32,278.26c55.1-21.66,84.3-60.19,99.29-89.78,17.48-34.5,19.86-64,20-65.26l.68-9.13h7l-.68,9.13c-.09,1.24-2.47,30.76-20,65.26-15,29.59-44.19,68.12-99.29,89.78q-6.45,2.55-13.4,4.77l-.68-2.13Q605.86,279.61,609.32,278.26Z" transform="translate(-360.26 -85.91)"/><path class="cls-1" d="M499,266.81,493.84,283q-6.95-2.22-13.4-4.77c-55.1-21.66-84.3-60.19-99.29-89.78-17.48-34.5-19.86-64-20-65.26l-.68-9.13h81.66v17H379.47a185.88,185.88,0,0,0,17.15,50.3c15.23,29.79,37.06,52.94,65.15,69.15A189,189,0,0,0,499,266.81Z" transform="translate(-360.26 -85.91)"/><path class="cls-2" d="M487.18,278.26c-55.1-21.66-84.3-60.19-99.29-89.78-17.48-34.5-19.86-64-20-65.26l-.68-9.13h-7l.68,9.13c.09,1.24,2.47,30.76,20,65.26,15,29.59,44.19,68.12,99.29,89.78q6.45,2.55,13.4,4.77l.68-2.13Q490.65,279.61,487.18,278.26Z" transform="translate(-360.26 -85.91)"/><path class="cls-1" d="M642.59,423.41v91.67H453.92V423.41l6-8c61.14-21.7,73.53-78.29,76-100.68a92,92,0,0,0,.63-9.32h23.33a92,92,0,0,0,.63,9.32c2.51,22.39,14.9,79,76,100.68Z" transform="translate(-360.26 -85.91)"/><rect class="cls-3" x="93.66" y="337.5" width="188.67" height="11.5"/><path class="cls-2" d="M469.92,415.41c61.14-21.7,73.53-78.29,76-100.68a92,92,0,0,0,.63-9.32h-10a92,92,0,0,1-.63,9.32c-2.51,22.39-14.9,79-76,100.68l-6,8v91.67h10V423.41Z" transform="translate(-360.26 -85.91)"/><path class="cls-3" d="M425.26,114.07h16.92v17H426.76Q425.85,122.67,425.26,114.07Z" transform="translate(-360.26 -85.91)"/><path class="cls-3" d="M499,266.81,493.84,283q-6.95-2.22-13.4-4.77a179.15,179.15,0,0,1-18.67-27.72A189,189,0,0,0,499,266.81Z" transform="translate(-360.26 -85.91)"/><path class="cls-3" d="M597.51,266.81a189.43,189.43,0,0,0,37.22-16.28,179.86,179.86,0,0,1-18.67,27.73q-6.45,2.55-13.39,4.76Z" transform="translate(-360.26 -85.91)"/><path class="cls-3" d="M671.24,114.07q-.59,8.6-1.5,17H654.33v-17Z" transform="translate(-360.26 -85.91)"/><path class="cls-3" d="M560.55,314.73a64.64,64.64,0,0,1-24.59,0,92,92,0,0,0,.63-9.32h23.33A92,92,0,0,0,560.55,314.73Z" transform="translate(-360.26 -85.91)"/><path class="cls-1" d="M427.26,85.91c.43,126.06,54.43,228,121,228s120.56-101.94,121-228Z" transform="translate(-360.26 -85.91)"/><path class="cls-2" d="M448.76,85.91h-21.5c.43,126.06,54.43,228,121,228A65.35,65.35,0,0,0,559,313C497.47,302.72,449.17,205.11,448.76,85.91Z" transform="translate(-360.26 -85.91)"/><rect class="cls-4" x="123.83" y="372.59" width="128.33" height="33"/><polygon class="cls-2" points="129.83 377.09 252.16 377.09 252.16 372.59 123.83 372.59 123.83 405.59 129.83 405.59 129.83 377.09"/></svg>