<svg id="With_Text" data-name="With Text" xmlns="http://www.w3.org/2000/svg" viewBox="0 0 1000 1000"><defs><style>.cls-1{fill:#22b573;}.cls-2{font-size:122.56px;font-family:TwCenMT-Bold, Tw Cen MT;font-weight:700;}.cls-3{letter-spacing:-0.05em;}</style></defs><title>With Text</title><path class="cls-1" d="M864.91,211,522.17,13.1a31.68,31.68,0,0,0-31.68,0L147.75,211a31.68,31.68,0,0,0-15.84,27.44V634.18a31.68,31.68,0,0,0,15.84,27.44L490.49,859.5a31.68,31.68,0,0,0,31.68,0L864.91,661.62a31.68,31.68,0,0,0,15.84-27.44V238.42A31.68,31.68,0,0,0,864.91,211Z"/><text class="cls-2" transform="translate(197.39 982.61)">H<tspan class="cls-3" x="77.8" y="0">A</tspan><tspan x="156.01" y="0">CKBOUT</tspan></text><polygon points="193.98 256.4 294.2 198.63 294.2 386.3 386.97 386.3 386.97 145.33 486.65 88.84 486.65 786.21 388.35 726.52 388.35 486.83 292.92 486.83 292.92 674.82 193.77 615.72 193.98 256.4"/><path d="M816.77,256.48,522.32,88.72V785.93l294.43-170V455.45l-17.18-21.07,17.21-17.08ZM717.49,559.85l-92.42,51.38V488h92.42Zm0-173.31H625.07V263.27l92.42,51.38Z"/></svg>