<svg xmlns="http://www.w3.org/2000/svg" viewBox="0 0 1000 1000"><defs><style>.cls-1{fill:#22b573;}</style></defs><title>Without Text</title><g id="Without_Text" data-name="Without Text"><path class="cls-1" d="M911.27,246.86l-387-223.46a35.78,35.78,0,0,0-35.78,0l-387,223.46a35.78,35.78,0,0,0-17.89,31V724.76a35.78,35.78,0,0,0,17.89,31l387,223.46a35.78,35.78,0,0,0,35.78,0l387-223.46a35.78,35.78,0,0,0,17.89-31V277.84A35.78,35.78,0,0,0,911.27,246.86Z"/><polygon points="153.6 298.14 266.77 232.91 266.77 444.83 371.54 444.83 371.54 172.72 484.11 108.92 484.11 896.44 373.1 829.04 373.1 558.37 265.33 558.37 265.33 770.65 153.36 703.92 153.6 298.14"/><path d="M856.91,298.23,524.38,108.79V896.13l332.49-192V522.93l-19.4-23.79,19.44-19.28ZM744.79,640.82l-104.37,58V559.63H744.79Zm0-195.72H640.42V305.9l104.37,58Z"/></g></svg>