<?xml version="1.0" encoding="utf-8"?>
<!-- Generator: Adobe Illustrator 21.0.2, SVG Export Plug-In . SVG Version: 6.00 Build 0)  -->
<svg version="1.1" id="Layer_1" xmlns="http://www.w3.org/2000/svg" xmlns:xlink="http://www.w3.org/1999/xlink" x="0px" y="0px"
	 viewBox="0 0 844 844" style="enable-background:new 0 0 844 844;" xml:space="preserve">
<style type="text/css">
	.st0{fill:#FFEACF;}
	.st1{fill:#FCF9DE;}
	.st2{fill:#FFD59A;}
	.st3{fill:#F9BB32;}
	.st4{fill:#DB9C2E;}
	.st5{fill:#BF6C0D;}
	.st6{fill:#A56021;}
</style>
<g>
	<g>
		<path class="st0" d="M607.3,216.3V16H236.7v200.3c0,74,42.8,137.9,104.7,168c14,6.8,23.1,20.9,23.1,36.5v2.4
			c0,15.7-9.1,29.7-23.1,36.5c-62,30.1-104.7,94-104.7,168V828h370.7V627.7c0-74-42.8-137.9-104.7-168c-14-6.8-23.1-20.9-23.1-36.5
			v-2.4c0-15.7,9.1-29.7,23.1-36.5C564.6,354.2,607.3,290.3,607.3,216.3z"/>
	</g>
	<g>
		<path class="st1" d="M580.3,637.9c-5.6,0-10.2-4.5-10.2-10.2c0-57-32.9-109.8-83.8-134.5c-5-2.4-7.1-8.5-4.7-13.6
			c2.5-5,8.5-7.1,13.6-4.7c57.8,28.1,95.2,88,95.2,152.7C590.4,633.3,585.9,637.9,580.3,637.9z"/>
	</g>
	<g>
		<path class="st2" d="M436.1,459.7c14-6.8,23.1-20.9,23.1-36.5v-2.4c0-15.7-9.1-29.7-23.1-36.5c-62-30.1-104.7-94-104.7-168V16
			h-94.7v200.3c0,74,42.8,137.9,104.7,168c14,6.8,23.1,20.9,23.1,36.5v2.4c0,15.7-9.1,29.7-23.1,36.5c-62,30.1-104.7,94-104.7,168
			V828h94.7V627.7C331.4,553.7,374.2,489.8,436.1,459.7z"/>
	</g>
	<g>
		<path class="st3" d="M285,285.6c25.2,50.3,76.9,84.9,136.5,84.9h1c59.6,0,111.3-34.6,136.5-84.9H285z"/>
	</g>
	<g>
		<path class="st3" d="M575.4,775.4v-25.2c0-85-68.6-154.2-152.9-154.2h-1c-84.3,0-152.9,69.2-152.9,154.2v25.2H575.4z"/>
	</g>
	<g>
		<rect x="408.5" y="338.2" class="st3" width="27.1" height="270.7"/>
	</g>
	<g>
		<path class="st4" d="M331.4,627.7c0-0.7,0-1.3,0-2c-38,28.1-62.8,73.4-62.8,124.5v25.2h62.8L331.4,627.7L331.4,627.7z"/>
	</g>
	<g>
		<path class="st4" d="M408.5,476.3c8.5-6.2,17.6-11.6,27.1-16.3V384c-9.5-4.7-18.6-10.1-27.1-16.3V476.3z"/>
	</g>
	<g>
		<path class="st4" d="M412,370.1c-30-20.7-53.6-50.1-67.3-84.5H285C308.9,333.2,356.4,366.7,412,370.1z"/>
	</g>
	<g>
		<path class="st5" d="M632.8,87.4H211.2c-10.6,0-19.3-8.6-19.3-19.3V35.8c0-10.6,8.6-19.3,19.3-19.3h421.6
			c10.6,0,19.3,8.6,19.3,19.3v32.4C652.1,78.8,643.4,87.4,632.8,87.4z"/>
	</g>
	<g>
		<path class="st5" d="M211.2,756.6h421.6c10.6,0,19.3,8.6,19.3,19.3v32.4c0,10.6-8.6,19.3-19.3,19.3H211.2
			c-10.6,0-19.3-8.6-19.3-19.3v-32.4C191.9,765.2,200.6,756.6,211.2,756.6z"/>
	</g>
	<g>
		<circle class="st2" cx="378.4" cy="134.9" r="30.5"/>
	</g>
	<g>
		<circle class="st4" cx="378.4" cy="716.3" r="30.5"/>
	</g>
	<g>
		<path class="st6" d="M286.7,68.2V35.8c0-10.6,8.6-19.3,19.3-19.3h-94.7c-10.6,0-19.3,8.6-19.3,19.3v32.4
			c0,10.6,8.6,19.3,19.3,19.3h94.7C295.3,87.4,286.7,78.8,286.7,68.2z"/>
	</g>
	<g>
		<path class="st6" d="M286.7,808.2v-32.4c0-10.6,8.6-19.3,19.3-19.3h-94.7c-10.6,0-19.3,8.6-19.3,19.3v32.4
			c0,10.6,8.6,19.3,19.3,19.3h94.7C295.3,827.5,286.7,818.8,286.7,808.2z"/>
	</g>
</g>
</svg>