<?xml version="1.0" encoding="utf-8"?>
<!-- Generator: Adobe Illustrator 21.0.2, SVG Export Plug-In . SVG Version: 6.00 Build 0)  -->
<svg version="1.1" id="Capa_1" xmlns="http://www.w3.org/2000/svg" xmlns:xlink="http://www.w3.org/1999/xlink" x="0px" y="0px"
	 viewBox="0 0 844 844" style="enable-background:new 0 0 844 844;" xml:space="preserve">
<style type="text/css">
	.st0{fill:#D84315;}
	.st1{fill:#FF5722;}
	.st2{fill:#FFEB3A;}
	.st3{fill:#FFB301;}
	.st4{fill:#FEC108;}
	.st5{fill:#C52828;}
	.st6{fill:#F44335;}
	.st7{fill:#607D8B;}
	.st8{fill:#CFD8DC;}
</style>
<g>
	<g>
		<path class="st0" d="M188.2,443.9c0,33.6-23.4,62.7-56.3,69.8c-5,1.1-10,1.7-15.1,1.6c-13.9,0-27.6-4-39.2-11.7L125,394l8.5-19.5
			C165.5,382.2,188.2,410.9,188.2,443.9z"/>
		<path class="st0" d="M299.7,316c-31.9,31.9-83.6,31.8-115.5-0.1c-6.5-6.5-11.9-14.1-15.8-22.4v-0.1l45.2-104.5l3.6-8.4h0.1
			c42.9-13.7,88.8,10,102.5,52.9C329.1,262.6,321.3,294.4,299.7,316z"/>
	</g>
	<g>
		<path class="st1" d="M161.3,456.1c0.1,22.8-10.9,44.3-29.4,57.6c-5,1.1-10,1.7-15.1,1.6c-13.9,0-27.6-4-39.2-11.7L125,394
			C147.4,406.6,161.3,430.3,161.3,456.1z"/>
		<path class="st1" d="M272.8,328.1c-3.4,3.5-7.2,6.6-11.2,9.4c-37.5,9.2-76.4-9.1-93.2-44v-0.1l45.2-104.5
			c22.2-0.5,43.6,8.1,59.2,23.8c32.2,31.4,33.4,82.4,2,114.6C274.3,327.8,273.8,328.3,272.8,328.1z"/>
	</g>
	<path d="M116.8,525.5c-15.9,0-31.5-4.6-44.8-13.4c-4.1-2.7-5.7-8-3.7-12.5l55.8-129.1c2-4.6,6.9-7,11.7-5.9
		c43.8,10.5,70.9,54.5,60.4,98.3C187.4,499.6,154.6,525.6,116.8,525.5z M90.6,499.3c30.5,14.5,67,1.4,81.5-29.1s1.4-67-29.1-81.5
		c-1.3-0.6-2.6-1.2-3.8-1.7L90.6,499.3z"/>
	<path d="M242.1,350.1c-35.4-0.1-67.6-20.4-82.9-52.2c-0.7-1.4-1-2.9-1-4.4c0-1.4,0.3-2.8,0.8-4.2l48.8-112.8c1.3-3,3.9-5.1,7-5.9
		c48.4-15,99.8,12.1,114.8,60.6c15,48.4-12.1,99.8-60.6,114.8C260.3,348.7,251.3,350.1,242.1,350.1L242.1,350.1z M179.7,293.1
		c12.7,22.6,36.5,36.6,62.4,36.6h0.1c18.9,0,37.1-7.5,50.4-21l0,0c27.9-27.9,27.9-73.1,0-100.9c-17.8-17.8-43.6-24.9-67.9-18.8
		L179.7,293.1z"/>
	<path class="st2" d="M458.4,200.5c-61.4-61.4-139.7-92.5-210.6-90.6l-30.5,70.7c42.9-13.6,88.7,10.2,102.3,53.1
		c13.6,42.9-10.2,88.7-53.1,102.3c-38.7,12.3-80.6-5.8-98.1-42.5L134,373.2l-0.6,1.3c38.3,9.2,62,47.7,52.8,86
		c-7.7,32.1-36.4,54.8-69.5,54.8c-13.9,0-27.6-4-39.2-11.7l-5.9,13.8L28.6,617c-2.2,5.2,0.2,11.2,5.4,13.5c2.6,1.1,5.5,1.1,8.1,0
		l193.4-83.6v80.6c0,11.3,9.2,20.4,20.5,20.4c1.1,0,2.3-0.1,3.4-0.3c10.1-2,17.2-11,16.9-21.3V577c0.3,11.3,9.7,20.2,20.9,19.9
		c11.1-0.3,19.9-9.3,19.9-20.4v-64.9l102-44.1v68.2c0,11.3,9.2,20.4,20.5,20.4c1.1,0,2.3-0.1,3.4-0.3c10.1-2,17.2-11,16.9-21.3
		v-49.3c0.3,11.3,9.7,20.2,20.9,19.9c11.1-0.3,19.9-9.3,19.9-20.4v-52.3l48.3-20.9C551,340.5,519.9,262,458.4,200.5z M318.4,434.9
		c-11.9,11.9-31.3,11.9-43.3,0c-11.9-11.9-11.9-31.3,0-43.3c11.9-11.9,31.3-11.9,43.3,0C330.3,403.6,330.3,423,318.4,434.9z
		 M456.7,369.2c-17.9,17.9-47,17.9-64.9,0c-17.9-17.9-17.9-47,0-64.9c17.9-17.9,47-17.9,64.9,0c17.9,17.9,18,46.9,0.1,64.8
		C456.8,369.2,456.8,369.2,456.7,369.2z"/>
	<path d="M256,658.1c-8.1,0-15.8-3.2-21.6-8.9c-5.8-5.8-9-13.5-9-21.6v-65.1L46.1,639.9c-5.1,2.2-11,2.2-16.1,0
		c-5-2.1-8.9-6.1-11-11.2c-2-5.1-2-10.6,0.2-15.7l49-113.5c1.2-2.8,3.6-4.9,6.5-5.7c2.9-0.9,6-0.4,8.6,1.3c9.9,6.6,21.4,10,33.3,10
		c0.1,0,0.1,0,0.2,0c28.5,0,52.9-19.3,59.5-47c7.8-32.8-12.5-65.9-45.3-73.7c-3-0.7-5.5-2.7-6.8-5.5c-1.3-2.7-1.4-6-0.1-8.7l0.6-1.3
		l34.3-79.4c1.6-3.7,5.2-6.1,9.2-6.2c4.4,0.2,7.7,2.2,9.4,5.8c15.3,31.8,52.2,47.8,85.8,37.1c37.5-11.9,58.3-52,46.4-89.5
		c-11.9-37.5-52-58.3-89.5-46.4c-3.8,1.2-8,0.1-10.7-2.9c-2.7-3-3.4-7.2-1.8-10.9l30.5-70.7c1.6-3.6,5.1-6,9.1-6.2
		c77.1-2.2,156.5,32,218.1,93.6c61.7,61.6,95.8,141.3,93.7,218.5c-0.1,4-2.5,7.5-6.2,9.1l-42.1,18.2v45.6
		c0,16.7-13.1,30.2-29.8,30.6c-3.8,0-7.5-0.5-11-1.7v20.9c0.4,15-10.1,28.3-25.1,31.3c-2,0.3-4.1,0.5-5.5,0.5
		c-16.8,0-30.6-13.7-30.6-30.6v-52.7l-81.7,35.3v58.2c0,16.7-13.1,30.2-29.8,30.6c-3.8,0-7.5-0.5-11-1.7v20.9
		c0.4,15-10.1,28.3-25.1,31.3C259.4,658,257.5,658,256,658.1z M235.5,536.8c2,0,3.9,0.6,5.6,1.7c2.9,1.9,4.6,5.1,4.6,8.5v80.6
		c0,2.7,1.1,5.3,3,7.2c1.9,1.9,4.5,3,7.2,3c0.7,0,1.2-0.1,1.7-0.2c4.9-1,8.6-5.6,8.4-11v-49.6c0-5.6,4.5-10.1,10.1-10.2
		c5.4,0.1,10.2,4.4,10.3,9.9c0.1,2.7,1.2,5.3,3.2,7.1c2,1.9,4.7,3.1,7.3,2.8c5.6-0.1,10-4.6,10-10.2v-64.9c0-4.1,2.4-7.8,6.2-9.4
		l102-44.1c3.1-1.4,6.8-1.1,9.7,0.8c2.9,1.9,4.6,5.1,4.6,8.5v68.2c0,5.6,4.6,10.2,10.2,10.2c0,0,0,0,0,0c0.6,0,1.1-0.1,1.7-0.2
		c4.9-1,8.6-5.6,8.4-11v-49.6c0-5.6,4.5-10.1,10.1-10.2c0.1,0,0.1,0,0.1,0c5.5,0,10.1,4.4,10.2,10c0.1,2.7,1.2,5.3,3.2,7.1
		c2,1.9,4.6,3.1,7.3,2.8c5.6-0.1,9.9-4.6,10-10.2v-52.3c0-4.1,2.4-7.7,6.2-9.4l42.2-18.3c-0.2-68.7-32.7-141.9-87.8-197
		C395.3,151.8,324,120.1,254.6,120l-20.2,46.9c41.8-3.4,81.9,22.2,95,63.7c15.3,48.2-11.5,99.9-59.7,115.1
		c-36.6,11.6-76.3-1.3-99.5-30.4l-22.8,53c36.9,14.8,58.4,54.9,48.9,94.6c-8.8,36.9-41.4,62.6-79.3,62.6c-0.1,0-0.2,0-0.3,0
		c-11.8,0-23.4-2.6-34-7.5L38,621.1l193.5-83.5C232.8,537,234.2,536.8,235.5,536.8z M296.8,454.1c-10.9,0-21.1-4.2-28.8-11.9
		c-15.9-15.9-15.9-41.8,0-57.7c15.9-15.9,41.8-15.9,57.7,0c15.9,15.9,15.9,41.8,0,57.7l0,0C317.9,449.8,307.7,454.1,296.8,454.1z
		 M296.8,392.9c-5.4,0-10.6,2.1-14.4,6c-7.9,7.9-7.9,20.9,0,28.8c8,8,20.9,7.9,28.8,0c7.9-7.9,7.9-20.9,0-28.8
		C307.3,395,302.2,392.9,296.8,392.9z M424.3,392.9c-15,0-29.1-5.8-39.7-16.4c-21.9-21.9-21.9-57.4,0-79.3
		c21.9-21.9,57.5-21.9,79.3,0c21.9,21.8,21.9,57.3,0.1,79.2c0,0-0.1,0.1-0.1,0.1C453.4,387,439.3,392.9,424.3,392.9z M424.3,301.1
		c-9.1,0-18.3,3.5-25.2,10.4c-13.9,13.9-13.9,36.5,0,50.5c13.5,13.5,37,13.5,50.5,0l0,0c0.2-0.2,0.4-0.4,0.6-0.6
		c13.3-13.4,13.3-36-0.6-49.9C442.6,304.6,433.4,301.1,424.3,301.1z"/>
	<path class="st3" d="M600.5,389.3l-21.1,9.1l-30.3,13.1c1.9-71-29.2-149.5-90.7-211c-61.4-61.4-139.7-92.5-210.6-90.6L261,79.5
		l9-20.9C432,38,580,152.8,600.5,314.8C603.7,339.6,603.6,364.6,600.5,389.3z"/>
	<path class="st4" d="M579.4,398.4l-30.3,13.1c1.9-71-29.2-149.5-90.7-211c-61.4-61.4-139.7-92.5-210.6-90.6L261,79.5
		c162.7-13.2,305.3,108.1,318.5,270.8C580.7,366.3,580.7,382.4,579.4,398.4z"/>
	<path d="M549.1,421.7c-5.6,0-10.2-4.6-10.2-10.2c0-0.1,0-0.2,0-0.3c1.9-70.6-30.9-146.7-87.7-203.5
		c-57.6-57.6-131.9-89.5-203.1-87.6c-3.5,0.2-6.8-1.6-8.7-4.5c-2-2.9-2.3-6.6-0.9-9.8l22.1-51.3c1.4-3.3,4.5-5.6,8.1-6.1
		c167.6-21.2,320.8,97.5,342,265.1c3.2,25.6,3.2,51.5,0,77.1c-0.5,3.6-2.8,6.7-6.1,8.1l-51.4,22.1
		C551.8,421.4,550.5,421.7,549.1,421.7z M263.3,99.7c72,2.6,144.9,36.1,202.3,93.5c55.5,53.4,89,125.8,93.6,202.7l31.8-13.7
		C607.8,225.5,494.2,84.7,337.4,68c-20.1-2.1-40.3-2.2-60.4,0L263.3,99.7z"/>
	<g>
		<path class="st5" d="M456.7,369.2c-17.9,17.9-47,17.9-64.9,0c-17.9-17.9-17.9-47,0-64.9c1.1-1.1,2.2-2.1,3.5-3.2
			c19.7-16,48.6-13,64.6,6.7C474.7,326.1,473.4,352.6,456.7,369.2z"/>
		<path class="st5" d="M318.4,434.9c-5.1,5.2-12,8.3-19.3,8.9c-8.9,0.7-17.7-2.6-24-8.9c-11.5-11.4-12-29.9-1.1-41.9
			c0.3-0.5,0.7-0.9,1.1-1.3c11.9-11.9,31.3-11.9,43.3,0C330.3,403.6,330.3,423,318.4,434.9L318.4,434.9z"/>
	</g>
	<g>
		<path class="st6" d="M426.1,379.4c-1.1,1.1-2.2,2.1-3.5,3.2c-11.6-0.3-22.6-5.1-30.8-13.4c-17.9-17.9-18-46.9-0.1-64.8
			c0,0,0.1-0.1,0.1-0.1c1.1-1.1,2.2-2.1,3.5-3.2c11.6,0.3,22.6,5.1,30.8,13.4c17.9,17.9,18,46.9,0.1,64.8
			C426.2,379.4,426.2,379.4,426.1,379.4z"/>
		<path class="st6" d="M299.1,443.8c-8.9,0.7-17.7-2.6-24-8.9c-11.5-11.4-12-29.9-1.1-41.9c8.9-0.7,17.7,2.6,24,8.9
			C309.5,413.3,310,431.8,299.1,443.8z"/>
	</g>
	<path d="M424.3,392.8c-31,0-56.1-25.1-56.1-56.1c0-31,25.1-56.1,56.1-56.1c31,0,56.1,25.1,56.1,56.1c0,14.9-5.9,29.2-16.5,39.7
		C453.4,387,439.2,392.9,424.3,392.8z M424.3,301.1c-19.7,0-35.7,15.9-35.7,35.6c0,9.5,3.8,18.6,10.5,25.3
		c14.1,13.5,36.4,13.5,50.5,0l0,0c13.9-14,13.9-36.6,0-50.5C442.8,304.8,433.7,301.1,424.3,301.1z"/>
	<path d="M235.6,557.2c-5.6,0-10.2-4.6-10.2-10.2c0,0,0,0,0,0v-11.2c0-5.6-4.6-10.2-10.2-10.2c-5.6,0-10.2-4.6-10.2-10.2
		c0-5.6,4.6-10.2,10.2-10.2c16.9,0,30.6,13.7,30.6,30.6V547C245.8,552.6,241.2,557.2,235.6,557.2L235.6,557.2z"/>
	<path id="SVGCleanerId_0" d="M276.4,587c-5.5,0.1-10.1-4.3-10.2-9.8c0-0.1,0-0.1,0-0.2v-10.7c0-5.6,4.6-10.2,10.2-10.2
		s10.2,4.6,10.2,10.2v10.2C286.6,582.2,282,586.9,276.4,587z"/>
	<g>
		<path id="SVGCleanerId_0_1_" d="M276.4,587c-5.5,0.1-10.1-4.3-10.2-9.8c0-0.1,0-0.1,0-0.2v-10.7c0-5.6,4.6-10.2,10.2-10.2
			s10.2,4.6,10.2,10.2v10.2C286.6,582.2,282,586.9,276.4,587z"/>
	</g>
	<path d="M419.2,477.8c-5.6,0-10.2-4.6-10.2-10.2c0,0,0,0,0,0v-23.7c0-5.6-4.6-10.2-10.2-10.2c-5.6,0-10.2-4.6-10.2-10.2
		c0-5.6,4.6-10.2,10.2-10.2c16.9,0,30.6,13.7,30.6,30.6v23.7C429.4,473.2,424.8,477.8,419.2,477.8L419.2,477.8z"/>
	<path id="SVGCleanerId_1" d="M460,495.2c-5.5,0.1-10.1-4.3-10.2-9.8c0-0.1,0-0.1,0-0.2v-10.7c0-5.6,4.6-10.2,10.2-10.2
		c5.6,0,10.2,4.6,10.2,10.2v10.2C470.2,490.4,465.7,495.1,460,495.2z"/>
	<g>
		<path id="SVGCleanerId_1_1_" d="M460,495.2c-5.5,0.1-10.1-4.3-10.2-9.8c0-0.1,0-0.1,0-0.2v-10.7c0-5.6,4.6-10.2,10.2-10.2
			c5.6,0,10.2,4.6,10.2,10.2v10.2C470.2,490.4,465.7,495.1,460,495.2z"/>
	</g>
	<path d="M296.8,454.1c-22.5,0-40.8-18.3-40.8-40.8c0-22.5,18.3-40.8,40.8-40.8c22.5,0,40.8,18.3,40.8,40.8c0,10.8-4.3,21.2-12,28.8
		C318,449.8,307.6,454.1,296.8,454.1z M296.8,392.9c-11.3,0-20.4,9.1-20.4,20.4c0,11.3,9.1,20.4,20.4,20.4
		c11.3,0,20.4-9.1,20.4-20.4c0-5.4-2.2-10.6-6-14.4C307.4,395.1,302.2,392.9,296.8,392.9z"/>
	<path d="M500.8,442.6c-5.6,0-10.2-4.6-10.2-10.2c0,0,0,0,0,0v-12.5c0-5.6,4.6-10.2,10.2-10.2c5.6,0,10.2,4.6,10.2,10.2v12.5
		C511,438,506.5,442.6,500.8,442.6L500.8,442.6z"/>
	<g>
		<path class="st7" d="M736.9,314.2c-1.9-15.2-8.5-29.5-18.9-40.8l-2-0.8c-2.8,7.2-12.2,13.8-26.5,19.1c-27.4,8.8-56.1,13-84.9,12.3
			c-6.7,0-13.4-0.2-19.8-0.6h-1.2c-47.8-2.9-84.8-15.4-90.4-30.9l-2.1,0.9c-4.9,5.5-8.9,11.6-12,18.3c-3.6,7.1-5.8,14.7-6.7,22.6
			c-0.2,1.6-0.3,3.2-0.3,4.8v1c0.6,1.3,1.4,2.5,2.2,3.7c0.5,0.6,1,1.1,1.6,1.7c7,6.5,15.3,11.4,24.4,14.3c2.3,0.9,4.9,1.8,7.6,2.8
			c2.8,0.8,5.6,1.6,8.7,2.4c3,0.8,6,1.5,9.2,2.2c3.1,0.6,6.2,1.3,9.5,1.9h0.3c3.4,0.6,6.8,1.2,10.4,1.7c11.6,1.7,24.3,3,37.6,3.7
			c6.9,0.3,14,0.5,21.2,0.5c8.2,0,16.1-0.2,23.9-0.7c10.6-0.6,20.7-1.5,30.3-2.9c41.4-5.5,71.8-17.3,78.5-31.4v-1
			C737.2,317.4,737.1,315.8,736.9,314.2z"/>
		<g>
			<path class="st8" d="M696.4,319v1c-6.6,14.1-37,25.9-78.5,31.4c-9.6,1.3-19.7,2.2-30.3,2.9c-1.4,0.1-2.9,0.2-4.3,0.2
				c-13.3-0.7-25.9-1.9-37.6-3.7c-3.6-0.5-7-1.1-10.4-1.7H535c-3.3-0.6-6.4-1.3-9.5-1.9c-3.2-0.7-6.2-1.4-9.2-2.2
				c-3.1-0.8-5.9-1.6-8.7-2.4c-2.7-0.9-5.2-1.8-7.6-2.8c-9.1-2.9-17.4-7.8-24.4-14.3c-0.6-0.6-1.1-1.1-1.6-1.7
				c-0.9-1.2-1.6-2.4-2.2-3.7v-1c0-1.6,0.1-3.2,0.3-4.8c0.9-7.9,3.2-15.5,6.7-22.6c3.1-6.6,7.2-12.8,12-18.3l2.1-0.9
				c5.6,15.5,42.7,28.1,90.4,30.9h1.2c6.4,0.4,13.1,0.6,19.8,0.6c28.8,0.6,57.5-3.6,84.9-12.3c3.5,7.1,5.7,14.7,6.6,22.6
				C696.3,315.8,696.4,317.4,696.4,319z"/>
			<path class="st8" d="M689.4,291.7c-27.4,8.8-56.1,13-84.9,12.3c-6.7,0-13.4-0.2-19.8-0.6c47.7-2.9,84.6-15.4,90.4-30.8l2,0.8
				C682.1,278.9,686.2,285.1,689.4,291.7z"/>
		</g>
		<path d="M604.5,365.2c-20.2,0-40.3-1.4-60.3-4.3c-3.4-0.5-6.8-1.1-10.1-1.7c-0.3,0-0.6-0.1-1-0.1c-2.1-0.4-4.1-0.8-6.1-1.2
			l-3.5-0.7c-3.6-0.8-6.8-1.6-9.9-2.4c-3.1-0.8-6-1.7-8.9-2.5c-3.2-1.1-5.9-2.1-8.4-3c-10.6-3.4-20.2-9.2-28.2-16.9
			c-0.7-0.7-1.4-1.4-2-2.1c-1.4-1.8-2.5-3.7-3.5-5.7c-0.7-1.4-1.1-3-1.1-4.5v-1c0-2.1,0.1-4.2,0.4-6.2c2.1-17.2,9.5-33.3,21.2-46.1
			c1-1.2,2.3-2.1,3.7-2.7l2.1-0.9c5.2-2.2,11.2,0.2,13.4,5.4c0.1,0.2,0.2,0.4,0.2,0.6c3.7,10.1,42,24.8,101.8,24.8
			c59.6,0,98.1-14.7,101.9-24.8c2-5.3,7.9-7.9,13.1-6c0.1,0,0.1,0.1,0.2,0.1l2,0.8c1.5,0.6,2.8,1.5,3.9,2.7
			c11.8,12.9,19.3,29.2,21.4,46.6c0.3,1.9,0.4,3.9,0.4,5.8v1c0,1.5-0.3,3-1,4.3c-11.7,24.8-64.3,34.3-86.4,37.2
			c-9.5,1.3-19.7,2.3-31.1,2.9C621.5,365,613.5,365.2,604.5,365.2z M536.3,339c0.3,0,0.6,0.1,0.9,0.1c3.2,0.6,6.6,1.2,10,1.7
			c19,2.8,38.2,4.1,57.3,4.1c8.5,0,16.1-0.2,23.2-0.7c10.9-0.6,20.6-1.5,29.6-2.8c40.2-5.3,63.6-15.8,69.6-24c0-0.5-0.1-1.1-0.2-1.7
			c-1.1-9.8-4.6-19.2-10.2-27.4c-20.5,17.8-68,25.9-112.1,25.9c-44.2,0-91.7-8.1-112.1-25.9c-5.5,8.1-8.9,17.3-10.1,26.9
			c-0.1,0.8-0.2,1.6-0.2,2.1l0.2,0.2l0,0c0.2,0.1,0.4,0.3,0.5,0.5c6,5.6,13.1,9.8,20.9,12.1c2.3,0.9,4.8,1.8,7.3,2.7
			c2.2,0.7,5,1.4,7.9,2.2c2.9,0.8,5.8,1.5,8.8,2.2l3.5,0.7C532.9,338.3,534.6,338.6,536.3,339z"/>
		<path class="st5" d="M696.4,343.8c-9.8,2.8-19.9,5-30,6.5c-2.6,0.4-5.1,0.8-7.7,1.1c-9.6,1.3-19.7,2.2-30.3,2.9
			c-7.8,0.5-15.7,0.7-23.9,0.7c-7.2,0-14.3-0.2-21.2-0.5c-13.3-0.7-25.9-1.9-37.6-3.7c-3.6-0.4-7-1-10.4-1.7H535
			c-3.3-0.6-6.4-1.3-9.5-1.9c-3.2-0.6-6.2-1.4-9.2-2.2c-3.1-0.8-5.9-1.6-8.7-2.4c-2.7-0.9-5.2-1.8-7.6-2.8
			c-9.1-2.9-17.4-7.8-24.4-14.3c-0.6-0.6-1.1-1.1-1.6-1.7c-0.9-1.2-1.6-2.4-2.2-3.7v397.2c0,1.6,0.4,3.2,1.2,4.6
			c0,0.2,0.1,0.3,0.2,0.5c8.3,15.4,53.5,27.8,110.8,30.1c6.6,0.4,13.5,0.5,20.4,0.5c66.8,0,122-13.4,131.2-30.6
			c0.9-1.6,1.4-3.3,1.4-5.1V320C732.8,329.3,717.9,337.7,696.4,343.8z"/>
		<path class="st6" d="M696.4,343.8v373.5c0,1.8-0.5,3.6-1.4,5.1c-8.3,15.4-53.5,27.8-110.8,30.1c-57.3-2.3-102.6-14.7-110.8-30.1
			c-0.1-0.2-0.2-0.3-0.2-0.5c-0.8-1.4-1.2-3-1.2-4.6V320c0.6,1.3,1.4,2.5,2.2,3.7c0.5,0.6,1,1.1,1.6,1.7c7,6.5,15.3,11.4,24.4,14.3
			c2.3,0.9,4.9,1.8,7.6,2.8c2.8,0.8,5.6,1.6,8.7,2.4c3,0.8,6,1.6,9.2,2.2c3.1,0.6,6.2,1.3,9.5,1.9h0.3c3.4,0.7,6.8,1.3,10.4,1.7
			c11.6,1.7,24.3,3,37.6,3.7c6.9,0.3,14,0.5,21.2,0.5c8.2,0,16.1-0.2,23.9-0.7c10.6-0.6,20.7-1.5,30.3-2.9c2.6-0.3,5.1-0.7,7.7-1.1
			C676.5,348.8,686.5,346.6,696.4,343.8z"/>
		<path d="M604.5,763.2c-60.2,0-127-11.1-140.2-36c-0.2-0.3-0.3-0.6-0.5-1c-1.4-2.8-2.1-5.8-2.2-8.9V320c0-5.6,4.6-10.2,10.2-10.2
			c3.9,0,7.4,2.2,9.1,5.7c0.4,0.7,0.8,1.4,1.3,2.1l0,0c0.2,0.1,0.4,0.3,0.5,0.5c6,5.6,13.1,9.8,20.9,12.1c2.3,0.9,4.8,1.8,7.3,2.7
			c2.2,0.7,5,1.4,7.9,2.2c2.8,0.8,5.6,1.5,8.5,2.1l3.8,0.8c1.7,0.3,3.4,0.7,5.1,1c0.4,0,0.8,0.1,1.1,0.2c3.1,0.7,6.2,1.2,9.4,1.6
			c19.1,2.8,38.3,4.2,57.6,4.1c8.5,0,16.1-0.2,23.2-0.7c10.9-0.6,20.6-1.5,29.6-2.8c2.6-0.3,5-0.7,7.4-1.1
			c38.3-6.1,59.6-17,63.2-24.6c2.4-5.1,8.5-7.3,13.6-4.9c3.6,1.7,5.8,5.3,5.8,9.2v397.2c0,3.5-1,7-2.7,10.1
			C731.5,752.1,664.8,763.2,604.5,763.2z M482.1,717.2c5.7,10.7,52.4,25.6,122.4,25.6s116.7-14.9,122.2-25.2l0.2-374.9
			c-18.6,9-38.5,15-59,17.7c-2.7,0.4-5.3,0.8-8,1.2c-9.4,1.3-19.5,2.3-30.9,2.9c-7.4,0.5-15.5,0.7-24.5,0.7
			c-20.2,0-40.3-1.4-60.3-4.3c-3.3-0.4-6.8-1-10.3-1.7c-0.3,0-0.5-0.1-0.8-0.1c-2.1-0.4-4.1-0.8-6.1-1.2l-3.5-0.7
			c-3.4-0.7-6.7-1.5-9.9-2.4c-3.1-0.8-6-1.7-8.9-2.5c-3.2-1.1-5.9-2.1-8.4-3c-4.9-1.8-9.7-4-14.3-6.5L482.1,717.2L482.1,717.2z"/>
		<path d="M512.7,406.1c-5.6,0-10.2-4.6-10.2-10.2c0,0,0,0,0,0v-20.4c0-5.6,4.6-10.2,10.2-10.2c5.6,0,10.2,4.6,10.2,10.2v20.4
			C522.9,401.5,518.3,406,512.7,406.1C512.7,406.1,512.7,406.1,512.7,406.1z"/>
		<path d="M512.7,569.3c-5.6,0-10.2-4.6-10.2-10.2c0,0,0,0,0,0V436.7c0-5.6,4.6-10.2,10.2-10.2c5.6,0,10.2,4.6,10.2,10.2v122.4
			C522.9,564.7,518.3,569.3,512.7,569.3C512.7,569.3,512.7,569.3,512.7,569.3z"/>
		<path d="M584.1,487.7c-5.6,0-10.2-4.6-10.2-10.2c0-2.7,1.1-5.3,3-7.2l71.4-71.4c4-3.9,10.5-3.9,14.4,0.1c3.9,4,3.9,10.3,0,14.3
			l-71.4,71.4C589.4,486.6,586.8,487.7,584.1,487.7z"/>
		<path d="M584.1,548.9c-5.6,0-10.2-4.6-10.2-10.2c0-2.7,1.1-5.3,3-7.2l71.4-71.4c4-3.9,10.5-3.9,14.4,0.1c3.9,4,3.9,10.3,0,14.3
			l-71.4,71.4C589.4,547.8,586.8,548.9,584.1,548.9z"/>
		<path class="st5" d="M737.2,722.4v35.7c0,1.8-0.5,3.6-1.4,5.1c-9.2,17.2-64.4,30.6-131.2,30.6c-6.9,0-13.8-0.1-20.4-0.5
			c-57.3-2.3-102.6-14.7-110.8-30.1c-0.9-1.6-1.4-3.3-1.4-5.1v-35.7l1.2-0.5c0,0.2,0.1,0.3,0.2,0.5c8.3,15.4,53.5,27.8,110.8,30.1
			c6.6,0.4,13.5,0.5,20.4,0.5c30.9,0.4,61.7-2.9,91.8-10c20.8-5.4,35.1-12.6,39.4-20.6L737.2,722.4L737.2,722.4z"/>
		<path class="st6" d="M696.4,722.4v35.7c0,1.8-0.5,3.6-1.4,5.1c-8.3,15.4-53.5,27.8-110.8,30.1c-57.3-2.3-102.6-14.7-110.8-30.1
			c-0.9-1.6-1.4-3.3-1.4-5.1V743c30.1,7.1,60.9,10.4,91.8,10c6.9,0,13.8-0.1,20.4-0.5c57.3-2.3,102.6-14.7,110.8-30.1H696.4z"/>
		<path d="M604.5,804c-60.2,0-127-11.1-140.2-36c-1.7-3-2.6-6.4-2.6-9.9v-35.7c0-4.1,2.5-7.8,6.3-9.4l1.2-0.5
			c5.1-2.1,11.1,0.3,13.3,5.4c7,10.6,53.3,25,122.1,25c70.1,0,116.7-14.9,122.2-25.2c1.8-3.3,5.2-5.4,9-5.4h1.4
			c5.6,0,10.2,4.6,10.2,10.2c0,0,0,0,0,0v35.7c0,3.5-1,7-2.7,10.1C731.5,792.9,664.8,804,604.5,804z M482.1,742.7v15.4
			c5.7,10.6,52.4,25.5,122.4,25.5s116.7-14.9,122.2-25.2l0.1-15.7c-26.9,14-76.5,20.5-122.3,20.5C558.6,763.2,509,756.7,482.1,742.7
			z"/>
		<path d="M737.2,773.4c-5.6,0-10.2-4.6-10.2-10.2c0,0,0,0,0,0v-5.1c0-5.6,4.6-10.2,10.2-10.2s10.2,4.6,10.2,10.2v5.1
			C747.4,768.8,742.8,773.4,737.2,773.4C737.2,773.4,737.2,773.4,737.2,773.4z"/>
		<ellipse class="st7" cx="604.5" cy="268.3" rx="112.2" ry="35.7"/>
		<ellipse class="st8" cx="584.1" cy="268.3" rx="91.8" ry="35.7"/>
		<path d="M604.5,314.2c-53.3,0-111.5-11.8-121-38.3c-0.9-2.4-1.4-5-1.4-7.7c0-31.6,63.5-45.9,122.4-45.9S727,236.8,727,268.3
			c0,2.6-0.5,5.2-1.4,7.7C715.6,302.5,657.6,314.2,604.5,314.2z M604.5,242.8c-67.3,0-102,17.9-102,25.5
			c3.9,10.8,42.3,25.5,102,25.5c59.6,0,98.1-14.7,101.9-24.8l0.2-0.7C706.6,260.7,671.8,242.8,604.5,242.8z"/>
		<path d="M818.8,293.8c-3.2,0-6.3-1.5-8.2-4.1l-54.2-73.2c-3.2-4.4-9.2-5.6-13.8-2.7l-91.2,67.8c-4.5,3.4-10.9,2.4-14.3-2.1
			c-3.4-4.5-2.4-10.9,2.1-14.3l91.8-68.2c13.7-9.1,32.1-5.8,41.8,7.4l54.1,73.1c3.3,4.5,2.4,10.9-2.1,14.3
			C823.1,293.1,821,293.8,818.8,293.8z"/>
	</g>
</g>
</svg>
