<?xml version="1.0" encoding="utf-8"?>
<!-- Generator: Adobe Illustrator 21.0.2, SVG Export Plug-In . SVG Version: 6.00 Build 0)  -->
<svg version="1.1"
	 id="Capa_1" inkscape:version="0.92.3 (2405546, 2018-03-11)" sodipodi:docname="swags.svg" xmlns:cc="http://creativecommons.org/ns#" xmlns:dc="http://purl.org/dc/elements/1.1/" xmlns:inkscape="http://www.inkscape.org/namespaces/inkscape" xmlns:rdf="http://www.w3.org/1999/02/22-rdf-syntax-ns#" xmlns:sodipodi="http://sodipodi.sourceforge.net/DTD/sodipodi-0.dtd" xmlns:svg="http://www.w3.org/2000/svg"
	 xmlns="http://www.w3.org/2000/svg" xmlns:xlink="http://www.w3.org/1999/xlink" x="0px" y="0px" viewBox="0 0 201.4 201.4"
	 style="enable-background:new 0 0 201.4 201.4;" xml:space="preserve">
<style type="text/css">
	.st0{fill:#14663F;}
	.st1{fill:#21A364;}
	.st2{fill:#187A4B;}
	.st3{fill:#22B573;}
</style>
<sodipodi:namedview  bordercolor="#666666" borderopacity="1" gridtolerance="10" guidetolerance="10" id="namedview65" inkscape:current-layer="Capa_1" inkscape:cx="142.34064" inkscape:cy="135.2239" inkscape:pagecheckerboard="true" inkscape:pageopacity="0" inkscape:pageshadow="2" inkscape:window-height="704" inkscape:window-maximized="1" inkscape:window-width="1366" inkscape:window-x="0" inkscape:window-y="27" inkscape:zoom="2.3437462" objecttolerance="10" pagecolor="#ffffff" showgrid="false">
	</sodipodi:namedview>
<rect id="rect8" x="104.1" y="29" transform="matrix(0.2277 -0.9737 0.9737 0.2277 48.6677 167.1469)" class="st0" width="51.2" height="47.8"/>
<rect id="rect12" x="42.3" y="16.9" transform="matrix(0.9931 -0.1174 0.1174 0.9931 -5.1131 8.6737)" class="st1" width="57.5" height="61.6"/>
<path id="rect16" inkscape:connector-curvature="0" sodipodi:nodetypes="cccccccc" class="st2" d="M119.4,36.2l-55,13.2l5.3,21.9
	h58.2L119.4,36.2z M127.8,71.3H69.7H127.8z"/>
<path id="polygon20" inkscape:connector-curvature="0" sodipodi:nodetypes="ccccccccsscccccssccccc" class="st3" d="M25.6,64.9
	L18.8,198h163.8l-6.8-133.1H25.6z M75.1,78.5c3.8,0,6.8,3.1,6.8,6.8c0,2.4-1.3,4.7-3.4,5.9v16.3c0,12.2,10,22.2,22.2,22.2
	s22.2-10,22.2-22.2c4-8-3.3-18.4-3.4-22.2c0-3.8,3.1-6.8,6.8-6.8c3.8,0,6.8,3.1,6.8,6.8c-4.3,8-3.4,12.1-3.4,22.2c0,16-13,29-29,29
	s-29-13-29-29V91.2c-2.1-1.2-3.4-3.5-3.4-5.9C68.3,81.6,71.3,78.5,75.1,78.5z M71.7,91.2C23.9,164.7,47.8,128,71.7,91.2z"/>
<g id="g34">
</g>
<g id="g36">
</g>
<g id="g38">
</g>
<g id="g40">
</g>
<g id="g42">
</g>
<g id="g44">
</g>
<g id="g46">
</g>
<g id="g48">
</g>
<g id="g50">
</g>
<g id="g52">
</g>
<g id="g54">
</g>
<g id="g56">
</g>
<g id="g58">
</g>
<g id="g60">
</g>
<g id="g62">
</g>
</svg>
