<?xml version="1.0" encoding="utf-8"?>
<svg version="1.1" id="logo" xmlns="http://www.w3.org/2000/svg" xmlns:xlink="http://www.w3.org/1999/xlink" x="0px" y="0px"
width="200px" height="72px" viewBox="0 0 200 72" style="enable-background:new 0 0 200 72;" xml:space="preserve">
<style type="text/css">.st0{fill:#5EB3E4;}.st1{fill:#0055B8;}.st2{fill:#FFB71B;}.st3{fill:#009ADE;}.st4{fill:#1A1A18;}</style>
<path class="st0" d="M34.7,12.6V0c-18.2,0-33,14.8-33,33h12.6C14.4,21.7,23.5,12.6,34.7,12.6z"/><path class="st1" d="M34.7,53.3v12.6c18.2,0,33-14.8,33-33H55.1C55.1,44.2,46,53.3,34.7,53.3z"/><path class="st1" d="M58,9.7c-1-0.1-1.9-0.2-2.9-0.2c-6.6,0-12.4,3.1-16.2,8h-4.2L21.9,30.3c4,1.7,8.3,2.6,12.9,2.6c0,4.6,0.9,8.9,2.6,12.9L50.3,33v-4.2c4.9-3.7,8-9.6,8-16.2C58.3,11.6,58.2,10.6,58,9.7z M36.7,31c0-0.4-0.1-0.8-0.1-1.2c0-10.2,8.2-18.4,18.4-18.4c0.4,0,0.8,0,1.2,0.1L36.7,31z"/><path class="st2" d="M21.9,34.4L0,67.7l33.3-21.9C31.2,40.6,27.1,36.5,21.9,34.4z M6.8,60.9l15.8-24c1.8,0.9,3.4,2.1,4.7,3.4L6.8,60.9z"/><g><path class="st3" d="M16.7,42.4c-1.5-2.8-2.3-6-2.3-9.4H1.8c0,7.9,2.8,15.1,7.4,20.8L16.7,42.4z"/><path class="st3" d="M25.3,51l-11.4,7.5c5.7,4.6,12.9,7.4,20.8,7.4V53.3C31.3,53.3,28.2,52.5,25.3,51z"/></g><g><path class="st4" d="M94.7,14.8c0,4.7-2.2,6.6-7.2,6.6c-5,0-7.1-2-7.1-6.3V6.4c0-4.5,2-6.3,7.1-6.3s7.2,1.9,7.2,6.6h-3.8c0-2.1-0.5-3.2-3.4-3.2c-2.8,0-3.3,1.2-3.3,3.2v8.2c0,2,0.5,3.2,3.3,3.2s3.4-1.2,3.4-3.3H94.7z"/><path class="st4" d="M105.5,21.3V11.1c0-2-0.8-2.7-2.4-2.7c-1.6,0-2.4,0.9-2.4,2.7v10.3h-3.8V0.1h3.8v6.3c0.8-1,2.1-1.4,3.4-1.4c3.5,0,5.2,2.2,5.2,5.7v10.7H105.5z"/><path class="st4" d="M111.6,15.1v-3.8c0-4.3,2.1-6.3,6.3-6.3c4.3,0,6.3,2,6.3,6.3v10h-3.2l-0.3-1.8c-0.6,1.2-2,1.9-3.8,1.9C113.8,21.4,111.6,19.6,111.6,15.1z M118,8.4c-2,0-2.5,1.2-2.5,3.2v3.4c0,2.3,0.9,3.1,2.4,3.1c1.9,0,2.5-1.4,2.5-3.3v-3.3C120.5,9.5,120,8.4,118,8.4z"/><path class="st4" d="M127,0.1h3.8v15.2c0,1.8,0.3,2.4,1.9,2.4v3.6c-4.4,0-5.7-1.3-5.7-6V0.1z"/><path class="st4" d="M134.7,0.1h3.8v15.2c0,1.8,0.3,2.4,1.9,2.4v3.6c-4.4,0-5.7-1.3-5.7-6V0.1z"/><path class="st4" d="M154.7,16.3c0,3.4-2,5-6.3,5c-4.3,0-6.3-2-6.3-6.3v-3.7c0-4.1,2-6.3,6.3-6.3c4.3,0,6.3,2,6.3,6.3v3.2h-8.8V15c0,2.6,1,3.1,2.6,3.1c1.8,0,2.5-0.6,2.5-1.8H154.7z M145.8,11.5h5.2c0-2-0.4-3.2-2.5-3.2C146.2,8.3,145.8,9.5,145.8,11.5z"/><path class="st4" d="M157.3,5.1h3.3l0.2,1.7c1-1.2,2.5-1.8,3.8-1.8c2.7,0,5.3,1.4,5.3,6.3v10h-3.7v-10c0-2.1-0.9-2.9-2.5-2.9c-1.5,0-2.6,0.7-2.6,2.8v10.1h-3.8V5.1z"/><path class="st4" d="M172.3,15.3v-4.1c0-4.5,2.1-6.3,5.3-6.3c1.8,0,3.1,0.7,3.7,1.9l0.3-1.8h3.1v16.7c0,4.2-2.2,6.2-6.1,6.2c-4,0-5.9-1.7-5.9-5.2h3.6c0,1.3,0.7,1.9,2.3,1.9c2,0,2.6-1,2.6-3v-2c-0.6,0.9-1.5,1.7-3.4,1.7C174.3,21.4,172.3,19.5,172.3,15.3z M181,14.8v-3.2c0-1.9-0.6-3.3-2.5-3.3c-1.5,0-2.4,0.8-2.4,3.1v3.4c0,2.3,0.8,3.2,2.3,3.2C180.3,18.1,181,16.8,181,14.8z"/><path class="st4" d="M199.5,16.3c0,3.4-2,5-6.3,5c-4.3,0-6.3-2-6.3-6.3v-3.7c0-4.1,2-6.3,6.3-6.3c4.3,0,6.3,2,6.3,6.3v3.2h-8.8V15c0,2.6,1,3.1,2.6,3.1c1.8,0,2.5-0.6,2.5-1.8H199.5z M190.7,11.5h5.2c0-2-0.4-3.2-2.5-3.2C191.1,8.3,190.7,9.5,190.7,11.5z"/></g><g><path class="st4" d="M89.8,48.4l-4.2-7.5h-1.4v7.5h-3.8V27.1h5.3c5.1,0,7.5,1.9,7.5,6.4v1.1c0,3.1-1.1,4.8-3.7,5.7l4.7,8.1H89.8z M85.7,37.4c2.8,0,3.5-1,3.5-3v-0.7c0-2-0.5-3.1-3.5-3.1h-1.6v6.8H85.7z"/><path class="st4" d="M95.4,42.3v-3.9c0-4.3,2-6.3,6.3-6.3c4.3,0,6.3,2,6.3,6.3v3.9c0,4.4-2,6.3-6.3,6.3C97.5,48.6,95.4,46.7,95.4,42.3z M104.3,42.1v-3.5c0-2-0.5-3.2-2.5-3.2c-2,0-2.5,1.2-2.5,3.2v3.5c0,2,0.5,3.2,2.5,3.2C103.7,45.3,104.3,44.1,104.3,42.1z"/><path class="st4" d="M119.2,38.2c0-1.8-0.7-2.8-2.5-2.8c-2.1,0-2.7,1.2-2.7,3.2v3.5c0,2,0.5,3.2,2.5,3.2c2,0,2.7-0.9,2.7-2.8h3.6c0,4.4-2,6.1-6.3,6.1c-4.3,0-6.3-2-6.3-6.4v-3.6c0-4.4,2.1-6.5,6.4-6.5c4.3,0,6.2,1.7,6.2,6.1H119.2z"/><path class="st4" d="M134.2,48.4l-4.5-7.1h-1.1v7.1h-3.8V27.1h3.8v10.8h1l4-5.8h4.2l-5.2,7.3l5.8,9H134.2z"/><path class="st4" d="M151.6,43.4c0,3.4-2,5-6.3,5c-4.3,0-6.3-2-6.3-6.3v-3.7c0-4.1,2-6.3,6.3-6.3c4.3,0,6.3,2,6.3,6.3v3.2h-8.8V42c0,2.6,1,3.1,2.6,3.1c1.8,0,2.5-0.6,2.5-1.8H151.6z M142.7,38.5h5.2c0-2-0.4-3.2-2.5-3.2C143.1,35.3,142.7,36.5,142.7,38.5z"/><path class="st4" d="M153.9,29.3l3.8-0.4V32h2.8v3.4h-2.8v6.9c0,1.8,0.3,3,2.8,2.7v3.3c-4.8,0.5-6.6-1.1-6.6-6V29.3z"/></g><g><path class="st1" d="M78.6,69.7c0,2.8-4.3,2.8-4.3,0C74.3,66.9,78.6,67,78.6,69.7z"/><path class="st1" d="M89.4,61.5c0-1.8-0.7-2.8-2.5-2.8c-2.1,0-2.7,1.2-2.7,3.2v3.5c0,2,0.5,3.2,2.5,3.2c2,0,2.7-0.9,2.7-2.8H93c0,4.4-2,6.1-6.3,6.1c-4.3,0-6.3-2-6.3-6.4v-3.6c0-4.4,2.1-6.5,6.4-6.5c4.3,0,6.2,1.7,6.2,6.1H89.4z"/><path class="st1" d="M95,65.7v-3.9c0-4.3,2-6.3,6.3-6.3c4.3,0,6.3,2,6.3,6.3v3.9c0,4.4-2,6.3-6.3,6.3C97,72,95,70,95,65.7z M103.8,65.5v-3.5c0-2-0.5-3.2-2.5-3.2c-2,0-2.5,1.2-2.5,3.2v3.5c0,2,0.5,3.2,2.5,3.2C103.3,68.6,103.8,67.5,103.8,65.5z"/><path class="st1" d="M110.1,55.5h3.3l0.2,1.7c0.9-1.2,2.4-1.8,3.8-1.7c1.6,0,3.2,0.5,4,2.1c0.9-1.3,2.6-2.1,4.6-2.1c3.4,0,5.4,2,5.4,6.4v10h-3.8v-10c0-2.1-0.9-2.9-2.4-2.9c-1.4,0-2.5,0.6-2.6,2.9v10h-3.8v-10c0-2.1-0.9-2.9-2.4-2.9c-1.5,0-2.6,0.7-2.6,2.8v10.1h-3.8V55.5z"/></g>
</svg>