<?xml version="1.0" encoding="utf-8"?>
<!-- Generator: Adobe Illustrator 21.0.2, SVG Export Plug-In . SVG Version: 6.00 Build 0)  -->
<svg version="1.1" id="Capa_1" xmlns="http://www.w3.org/2000/svg" xmlns:xlink="http://www.w3.org/1999/xlink" x="0px" y="0px"
	 viewBox="0 0 844 844" style="enable-background:new 0 0 844 844;" xml:space="preserve">
<style type="text/css">
	.st0{fill:#FED322;}
	.st1{fill:#E0E0E2;}
	.st2{fill:#FFFFFF;}
	.st3{fill:#78BAEC;}
	.st4{fill:#FECE00;}
	.st5{fill:#FFEB9A;}
</style>
<rect x="25.5" y="108.1" class="st0" width="792.9" height="528"/>
<path d="M830.6,648.3H13.4V96h817.2V648.3z M37.7,624h768.7V120.3H37.7V624z"/>
<path class="st1" d="M740.6,147.2H422v449.9h318.6c0-21.4,17.4-38.8,38.8-38.8V185.9C758,185.9,740.6,168.6,740.6,147.2z"/>
<path class="st2" d="M103.4,147.2c0,21.4-17.4,38.8-38.8,38.8v372.4c21.4,0,38.8,17.4,38.8,38.8H422V147.2H103.4z"/>
<path d="M752.7,609.2H91.3v-12.1c0-14.7-12-26.6-26.6-26.6H52.5V173.8h12.1c14.7,0,26.6-12,26.6-26.6V135h661.5v12.1
	c0,14.7,12,26.6,26.6,26.6h12.1v396.6h-12.1c-14.7,0-26.6,12-26.6,26.6L752.7,609.2L752.7,609.2L752.7,609.2z M114.1,585h615.9
	c4.5-18.3,19-32.8,37.3-37.3V196.6c-18.3-4.5-32.8-19-37.3-37.3H114.1c-4.5,18.3-19,32.8-37.3,37.3v351.1
	C95.1,552.1,109.6,566.6,114.1,585z"/>
<polygon class="st3" points="623.6,575 578,560.7 578,727.5 623.6,702.4 669.2,727.5 669.2,560.7 "/>
<path d="M565.9,748V544.2l57.7,18.1l57.7-18.1V748l-57.7-31.8L565.9,748z M623.6,688.5l33.5,18.4V577.2l-33.5,10.5l-33.5-10.5V707
	L623.6,688.5z"/>
<path class="st4" d="M714.6,491.2l-14.1-15.8c-1.6-1.8-2.3-4.1-2.1-6.4l2.1-21.1c0.4-4.2-2.4-8.1-6.6-9l-20.7-4.5
	c-2.3-0.5-4.3-1.9-5.5-4L657,412c-2.1-3.7-6.7-5.2-10.6-3.5l-19.4,8.6c-2.2,0.9-4.6,0.9-6.8,0l-19.4-8.6c-3.9-1.7-8.5-0.2-10.6,3.5
	l-10.7,18.3c-1.2,2-3.2,3.5-5.5,4l-20.7,4.5c-4.2,0.9-7,4.8-6.6,9l2.1,21.1c0.2,2.3-0.5,4.7-2.1,6.4l-14.1,15.8
	c-2.8,3.2-2.8,8,0,11.2l14.1,15.8c1.6,1.8,2.3,4.1,2.1,6.4l-2.1,21.1c-0.4,4.2,2.4,8.1,6.6,9l24.3,5.3l0.4,0.6l12.2,20.9
	c2.1,3.7,6.7,5.2,10.6,3.5l19.4-8.6c2.2-0.9,4.6-0.9,6.8,0l19.4,8.6c3.9,1.7,8.5,0.2,10.6-3.5l12.2-20.9l0.4-0.6l24.3-5.3
	c4.2-0.9,7-4.8,6.6-9l-2.1-21.1c-0.2-2.3,0.5-4.7,2.1-6.4l14.1-15.8C717.4,499.2,717.4,494.4,714.6,491.2z"/>
<circle class="st5" cx="623.6" cy="496.8" r="40.5"/>
<path d="M623.6,549.4c-29,0-52.6-23.6-52.6-52.6s23.6-52.6,52.6-52.6s52.6,23.6,52.6,52.6C676.3,525.8,652.7,549.4,623.6,549.4z
	 M623.6,468.4c-15.7,0-28.4,12.7-28.4,28.4c0,15.7,12.7,28.4,28.4,28.4s28.4-12.7,28.4-28.4C652,481.2,639.3,468.4,623.6,468.4z"/>
<rect x="291" y="219.1" width="262.1" height="24.3"/>
<rect x="153.4" y="299.2" width="537.3" height="24.3"/>
<rect x="153.4" y="360" width="537.3" height="24.3"/>
<rect x="153.4" y="420.8" width="268.6" height="24.3"/>
<rect x="153.4" y="503.5" width="154.3" height="24.3"/>
<rect x="344.8" y="503.5" width="154.3" height="24.3"/>
<path d="M723.6,483.2l-13-14.6l1.9-19.5c1-10.4-5.9-19.9-16.1-22.1l-19.1-4.2l-9.8-16.9c-3.7-6.3-10.5-10.2-17.7-10.2
	c-2.9,0-5.6,0.6-8.3,1.7l-17.9,7.9l-17.9-7.9c-2.6-1.2-5.4-1.7-8.3-1.7c-7.3,0-14.1,3.9-17.7,10.2l-9.8,16.9l-19.1,4.2
	c-10.2,2.2-17.1,11.7-16.1,22.1l1.9,19.5l-13,14.6c-6.9,7.8-6.9,19.5,0,27.3l13,14.6l-1.9,19.5c-1,10.4,5.9,19.9,16.1,22.1l19.1,4.2
	l9.8,16.9c3.7,6.3,10.5,10.2,17.7,10.2c2.9,0,5.6-0.6,8.3-1.7l5.8-2.5v108.8h24.3V593.6l5.8,2.5c2.6,1.2,5.4,1.7,8.3,1.7
	c7.3,0,14.1-3.9,17.7-10.2l9.8-16.9l19.1-4.2c10.2-2.2,17.1-11.7,16.1-22.1l-1.9-19.5l13-14.6C730.5,502.7,730.5,490.9,723.6,483.2z
	 M691.4,510.2c-3.8,4.3-5.7,10-5.1,15.7l1.8,17.8l-26.3,5.7l-13.5,23.2l-16.4-7.2c-2.6-1.2-5.4-1.7-8.3-1.7c-2.9,0-5.6,0.6-8.3,1.7
	l-16.3,7.2l-13.5-23.2l-26.3-5.7l1.8-17.8c0.6-5.7-1.3-11.4-5.1-15.7L544,496.8l11.9-13.3c3.8-4.3,5.7-10,5.1-15.7l-1.8-17.8
	l17.5-3.8c5.6-1.2,10.5-4.8,13.4-9.7l9-15.4l16.3,7.2c5.2,2.3,11.3,2.3,16.5,0l16.4-7.2l9,15.4c2.9,5,7.8,8.5,13.4,9.7l17.5,3.8
	l-1.8,17.8c-0.6,5.7,1.3,11.4,5.1,15.7l11.9,13.3L691.4,510.2z"/>
</svg>
